<?xml version="1.0" encoding="UTF-8" standalone="no"?>
<svg
   id="_图层_1"
   data-name="图层 1"
   viewBox="0 0 1080 1080"
   version="1.1"
   sodipodi:docname="logo-light2.svg"
   inkscape:version="1.4.3 (0d15f75, 2025-12-25)"
   xmlns:inkscape="http://www.inkscape.org/namespaces/inkscape"
   xmlns:sodipodi="http://sodipodi.sourceforge.net/DTD/sodipodi-0.dtd"
   xmlns="http://www.w3.org/2000/svg"
   xmlns:svg="http://www.w3.org/2000/svg">
  <defs
     id="defs16" />
  <sodipodi:namedview
     id="namedview16"
     pagecolor="#ffffff"
     bordercolor="#000000"
     borderopacity="0.25"
     inkscape:showpageshadow="2"
     inkscape:pageopacity="0.0"
     inkscape:pagecheckerboard="0"
     inkscape:deskcolor="#d1d1d1"
     inkscape:zoom="0.29939935"
     inkscape:cx="577.82356"
     inkscape:cy="360.72222"
     inkscape:window-width="944"
     inkscape:window-height="789"
     inkscape:window-x="167"
     inkscape:window-y="127"
     inkscape:window-maximized="0"
     inkscape:current-layer="_图层_1" />
  <path
     d="m 720.7704,843.20311 c -1.25989,0.031 -2.41418,0.55884 -3.66968,0.59277 -1.92907,0.0521 -5.46032,-2.08935 -5.5625,1.24884 l 0.32972,29.83686 -32.47217,-0.0162 v 29.26758 c 0,0.2254 -0.82666,0.88684 -1.26612,0.76636 l -25.62915,-0.50513 0.0124,-28.74634 -32.17968,-0.25512 v -32.16795 h -62.75386 l -0.0581,213.87742 c 1.42773,1.7084 5.63745,0.2463 7.67944,0.199 9.59131,-0.2223 20.00683,-0.3026 29.57825,0 1.3302,0.043 6.51587,1.5729 7.05822,-0.3075 l -0.49096,-151.54851 c 4.82715,-0.12152 9.69531,0.16303 14.52649,0.0274 1.4635,-0.0411 3.04528,-1.22186 3.87927,0.27972 l 0.0204,32.6872 25.34607,-0.29627 v 45.35157 h 40.86914 c 0.57752,0 0.7555,-1.2874 0.81788,-1.8189 1.08935,-9.2799 -0.32276,-22.1442 -0.57593,-31.64569 -0.10059,-3.7785 0.11841,-7.5859 0.0217,-11.35963 h 26.36718 v -33.22266 h 17.66602 c 0.11279,0 0.5979,-0.78894 0.78577,-0.52716 -0.004,0.61609 0.0367,1.2439 0.0295,1.86658 -0.44324,38.22777 -0.56568,76.77286 -0.57337,114.91805 -0.002,10.1602 -1.1582,24.7654 -0.004,34.3247 0.0684,0.5658 -0.0209,1.2139 0.51941,1.59 1.56006,1.0859 10.56311,-0.2906 12.93164,-0.3189 6.57898,-0.079 13.03638,0.5135 19.51159,0.5705 2.95252,0.026 6.70911,0.2707 9.53956,0.01 0.69543,-0.065 1.40002,0.01 1.6864,-0.7946 l 0.0602,-212.99631 -0.42017,-0.63446 c -17.76855,-0.0709 -35.77698,-0.69031 -53.58081,-0.25183 z"
     id="path1" />
  <path
     d="m 948.07741,904.39665 c -1.59155,0 -0.21826,-3.79565 -0.24195,-4.50757 -0.23022,-6.97747 0.23609,-16.74548 -0.52221,-23.20483 -0.0623,-0.53155 -0.24048,-1.81885 -0.81787,-1.81885 H 917.2278 v -30.84961 h -61.69922 v 30.58594 c 0,0.57745 -1.28735,0.75543 -1.81885,0.81787 -4.94775,0.58075 -13.26599,0.14636 -18.50561,-0.005 -1.23889,-0.0358 -8.67945,-1.52955 -8.67945,0.24194 v 28.74023 h -27.1582 c -0.0559,0 -0.79102,0.73505 -0.79102,0.79102 v 152.66601 l 42.43726,0.027 c 0.43848,0.024 1.33228,-0.5321 1.33228,-0.8181 v -62.22649 c 0,-0.1551 -1.04932,-1.077 -0.25843,-1.3241 h 89.38123 l -0.29895,63.84289 44.06946,0.4975 -0.26636,-153.45963 z m -16.61133,51.67966 h -89.64844 c -0.30481,-0.7377 0.52735,-1.5801 0.52735,-1.8457 v -46.14255 h 22.93945 c 1.78674,0 0.79101,-2.71484 0.79101,-2.90039 v -24.52149 h 41.13282 v 26.63086 c 0,0.18549 0.76587,0.88837 1.1886,0.69165 l 23.07202,-0.43078 z"
     id="path2" />
  <path
     d="m 339.23756,908.90093 c -0.0216,-11.05695 0.12305,-22.11664 -0.0521,-33.1709 l -0.42017,-0.63446 c -11.19421,-0.27069 -22.61731,-0.66602 -33.78357,0.29718 V 844.01579 L 162.30155,843.72081 162.1453,1056.989 c 0.25622,0.8955 0.96826,0.7942 1.74646,0.8902 6.6405,0.8186 15.84412,-0.4552 22.67615,-0.578 6.76001,-0.1216 13.68249,0.2374 20.32861,0.022 0.31372,-0.6912 -0.52808,-1.5581 -0.52808,-1.8426 v -61.96289 l 93.56018,0.059 0.30701,-32.2273 h 38.23242 c 0.57752,0 0.7555,-1.2873 0.81787,-1.8188 1.39844,-11.91348 -0.0447,-29.64207 -0.0483,-42.23625 -8.5e-4,-2.78613 0.005,-5.604 0,-8.39373 z m -44.77783,47.70278 h -88.09131 v -75.94442 h 88.09131 z"
     id="path3" />
  <path
     d="m 534.40187,845.04497 c -0.12671,-1.0307 -0.0687,-1.7323 -1.34302,-1.82105 l -42.45459,-0.002 6.1e-4,175.07708 H 407.28639 V 844.01579 c 0,-0.056 -0.73511,-0.79101 -0.79101,-0.79101 h -42.71485 c -0.0559,0 -0.79101,0.73504 -0.79101,0.79101 V 1023.84 c 0,0.4366 1.27844,0.9327 1.81884,0.8179 l 37.73462,-0.557 c -0.20092,8.1631 0.2522,16.3804 0.019,24.546 -0.0518,1.816 -1.6565,7.9511 0.31567,8.6057 l 90.89307,-0.19 v -32.9589 l 40.07959,0.5297 c 0.0559,-28.38999 -0.0685,-56.79649 -0.0266,-85.19353 0.0361,-24.50434 -0.32142,-49.23023 0,-73.82813 0.0867,-6.6297 1.39648,-13.90485 0.57812,-20.56677 z"
     id="path4" />
  <path
     d="m 716.83611,256.37465 c 0,0.22541 0.82666,0.88685 1.26612,0.76636 l 26.42871,-0.48443 0.77905,-63.30225 19.51441,-0.5246 v -12.39258 c 0,-2.03326 9.74731,0.76813 10.02026,-2.10876 0.93506,-25.89642 0.0134,-51.59631 -0.0249,-77.54102 -0.002,-1.404476 1.18396,-3.724056 -0.51075,-4.775631 -0.69067,-0.428527 -1.12841,0.314087 -1.31079,0.314087 h -15.55664 l 0.52735,-20.039062 h -45.87891 v 9.492187 c -6.49084,-0.687378 -13.24243,-0.776611 -19.80713,-0.543457 -0.80908,0.02875 -4.45068,0.0093 -4.45068,0.807129 v 21.093747 c 0,0.57746 1.28747,0.7555 1.81885,0.81787 6.94238,0.81482 19.08349,0.24793 26.41626,-0.005 1.34094,-0.0462 2.57788,-0.64655 3.93017,-0.547 -0.90332,4.21197 -0.14343,7.92688 9.8e-4,12.12573 l -59.58814,0.26422 v 19.24805 h 26.63086 c 0.26563,0 1.10816,-0.83221 1.84571,-0.52734 v 16.34765 h -53.78907 l -0.31274,25.3288 c 2.328,1.867 4.56274,0.52295 6.88306,0.48859 6.24267,-0.0925 12.50524,0.11486 18.74218,0.0225 v 16.34765 l 27.94629,-1.05237 -0.29419,43.27338 29.29846,-0.0308 c 0.31226,0.73675 -0.52478,1.57483 -0.52478,1.84296 z"
     id="path5" />
  <path
     d="m 342.18792,368.93191 c 1.70056,0.18811 2.35303,2.01196 2.87537,-0.22864 l 0.52014,-20.83722 60.26294,-0.082 1.2268,-1.21015 -0.31518,-12.41601 h 16.08398 c 0.0559,0 0.79102,-0.73511 0.79102,-0.79102 v -11.33789 h 15.55664 c 0.0559,0 0.79102,-0.73511 0.79102,-0.79101 v -25.04883 h 28.21289 c 0.0559,0 0.79101,-0.73511 0.79101,-0.79102 V 273.777 l -112.01782,-0.2956 c -0.93323,0.16279 -0.20996,8.97895 -0.28418,10.3371 -0.0842,1.54309 -0.28918,6.04248 -1.86792,6.04248 h -11.33789 v 29.53125 h -12.91992 c -0.0559,0 -0.79102,0.73505 -0.79102,0.79102 v 16.875 c 0,0.67181 -0.3291,1.52081 0.005,2.37146 -0.47132,0.5531 -12.34461,-0.28217 -14.53333,-0.0253 -0.53149,0.0624 -1.81884,0.24042 -1.81884,0.81787 v 22.67578 c 0,0.36774 -0.72217,1.56018 -0.62134,2.27509 -6.48206,0.25024 -13.1294,0.84228 -19.70313,0.64923 -1.26855,-0.0372 -3.49511,-1.13196 -4.22583,-0.051 l -0.76379,48.01776 26.68469,-0.027 c 0.43945,0.12048 1.26611,-0.54096 1.26611,-0.76636 v -44.0332 c 8.27662,0.74548 17.99976,-0.9303 26.13306,-0.0306 z m 32.4021,-74.32483 h 8.17383 c 0.0559,0 0.79101,0.73504 0.79101,0.79101 v 16.34766 c 0,0.0559 0.73511,0.79101 0.79102,0.79101 h 13.71094 c 0.0559,0 0.79101,-0.7351 0.79101,-0.79101 v -20.30274 h 23.73047 v 22.93946 c 0,0.29699 -0.88659,0.80896 -1.3186,0.79071 l -14.50171,0.52765 v 10.2832 c 0,0.38238 -0.90137,3.42773 -1.31836,3.42773 h -30.58594 c -1.40442,-2.32257 -0.28406,-5.34723 -0.24096,-7.62506 0.17089,-9.05096 -0.17383,-18.13324 -0.0227,-27.17962 z"
     id="path6" />
  <path
     d="m 362.72479,205.87301 -18.19336,0.14032 v 16.34765 h -15.55664 c -0.17432,0 -0.80054,0.69855 -1.31836,0.52735 v 49.30664 c 0,0.57745 1.28747,0.75549 1.81884,0.81787 6.5066,0.76367 13.73487,-1.15851 20.32959,-0.5542 v -34.01367 c 0,-0.056 0.73511,-0.79102 0.79102,-0.79102 h 12.12891 c 0.47973,0 1.09057,0.79694 1.63208,-0.76953 l -0.28907,-28.02295 c -0.12048,-0.43945 0.54102,-1.26611 0.76636,-1.26611 h 19.24805 l 0.22314,-28.49274 26.67139,-0.77484 v -27.1582 l 29.03516,-0.22107 c 1.13024,-5.74964 -0.69336,-11.81409 0.49609,-17.70862 H 410.4494 l -0.52735,16.875 h -26.36719 l -1.05969,27.42169 c -5.99231,-1.28699 -12.57385,-0.0843 -18.69104,-0.50116 -1.29053,0.70038 -0.28833,1.10834 -0.28833,1.29236 v 26.89453 z"
     id="path7" />
  <path
     d="m 284.94158,211.81411 v 25.3125 c -1.53003,-0.15161 -2.95703,0.45324 -4.46167,0.54876 -1.64538,0.10444 -11.88598,-0.60022 -11.88598,0.7696 v 33.75 c 0,0.18676 0.76635,0.88818 1.18969,0.68988 l 17.79468,-0.42621 V 240.027 c 0,-0.056 0.73511,-0.79102 0.79102,-0.79102 h 13.97461 c -0.28784,-0.67303 0.52734,-1.56213 0.52734,-1.8457 v -23.99414 h 11.86523 c 4.16236,0 2.22217,-4.09161 2.33741,-7.13831 0.0608,-1.6051 0.48559,-3.11175 0.6062,-4.71692 0.0889,-1.18273 -0.7063,-3.3125 -0.0483,-3.70721 2.38598,0.0712 4.73022,0.32898 7.14612,0.29254 1.12256,-0.0169 2.0863,-0.4939 3.14111,-0.55414 0.67029,-0.0383 3.42883,1.14289 3.42883,-0.25995 v -16.875 c 0,-1.32952 -3.10156,-0.26062 -3.93359,-0.23852 -3.77881,0.1004 -7.58753,-0.12378 -11.36206,-0.0279 -0.17261,5.06811 0.49768,10.24505 -0.5979,15.22241 -3.32678,0.74566 -6.79517,0.71918 -10.2041,0.59741 -1.19397,-0.0427 -3.42578,-1.22559 -4.25708,-0.0265 -0.83203,1.19995 0.0156,12.77325 -0.23243,15.32037 z"
     id="path8" />
  <path
     d="m 941.22088,318.86489 c -0.1731,0 -1.12256,1.05023 -1.32104,0.26178 l 0.29223,-45.60852 c -0.53052,-0.86145 -1.18896,-0.96546 -2.11059,-1.08472 -4.8462,-0.62732 -13.83594,-0.16803 -19.03077,0.003 -2.24829,0.0742 -4.67797,0.99518 -7.10009,0.55176 l -0.002,-34.27545 c -0.84791,-0.40961 -1.99085,0.52282 -2.36854,0.52282 h -27.68554 v -27.94922 h -29.53125 v -25.57617 c 0,-0.056 -0.73511,-0.79101 -0.79102,-0.79101 H 828.10565 V 78.659811 c 0,-0.225464 -0.82666,-0.886902 -1.26612,-0.766358 l -17.71826,0.502686 V 57.302389 L 789.60955,56.775045 V 35.681295 H 767.46111 V 15.642233 l -79.10156,0.791015 v 18.720703 h -28.74023 c -1.19544,0 -0.84448,8.39618 -0.81519,9.776795 0.054,2.552612 0.66431,5.859375 0.60242,8.41687 -0.0236,0.974548 -0.24719,1.949768 -0.6532,2.826477 l -25.45972,0.131042 c -0.23523,0.05261 -0.83252,0.633851 -0.83252,0.733582 v 19.775391 l -18.45703,0.527343 V 66.530905 H 489.55096 v 11.33789 H 436.28924 V 67.585592 c 0,-0.145874 -0.54102,-1.230774 -0.8894,-1.336914 l -19.172,0.310547 c -1.11817,-0.750611 1.7854,-11.906067 -1.40882,-12.853211 L 397.2658,54.138326 V 41.745748 c 0,-2.177429 -4.93774,-0.794067 -6.0426,-0.769165 -1.52686,0.03442 -7.97766,0.235352 -8.74695,-0.262512 -0.89038,-0.576233 0.63818,-5.248291 -0.80859,-6.646667 l -44.17407,-0.0063 c -1.04542,0.20935 -0.24292,4.020935 -0.31348,5.065185 -0.29566,4.372803 -1.35034,9.12262 -0.0315,13.430054 h -19.24804 c -0.0559,0 -0.79102,0.735047 -0.79102,0.791016 v 89.912109 h -22.41211 c -0.0559,0 -0.79101,0.73505 -0.79101,0.79102 v 17.66601 c -3.26526,0.47827 -6.6239,-0.48926 -9.73096,-0.55273 -2.79907,-0.0573 -5.31934,0.35766 -7.93408,0.44873 -0.66394,0.0231 -4.4834,-1.15601 -4.4834,0.36767 v 22.41211 h -23.73047 v 25.83985 h -22.41211 c -0.57739,0 -0.75537,1.28735 -0.81787,1.81884 -0.61597,5.24799 0.29822,11.95148 0.0486,17.45093 -0.11792,2.59839 -0.9663,5.35925 -0.57739,8.12573 l -22.323,0.14826 -1.27221,1.3067 0.41992,52.62494 c 0.0322,0.41443 0.1322,0.8352 0.49219,1.08722 1.10632,0.7746 8.04858,-0.99243 10.05566,-0.29431 l 0.002,39.02343 c -4.18286,-0.39245 -8.29663,0.28119 -12.40381,0.57392 -0.6936,0.0494 -2.89185,-0.90113 -2.89185,0.21441 v 22.14844 c 0,0.0559 -0.7351,0.79102 -0.79101,0.79102 h -18.98438 l -0.49377,27.45538 c -0.66675,0.95715 -10.64295,0.40491 -12.71179,0.47241 -1.2583,0.0411 -2.41846,0.52924 -3.67151,0.59766 -0.92359,0.0504 -3.95301,-1.01038 -3.95301,0.21478 v 28.74024 l -18.39965,0.57714 c -0.005,5.68842 -0.18689,11.41559 -0.0791,17.1106 0.0462,2.44104 1.66651,9.76178 -0.22473,11.38959 -0.62329,0.53644 -0.89856,-0.0734 -1.0719,-0.0734 h -16.08398 v 49.04297 h 13.18359 c 0.42139,2.20715 -0.68774,8.42316 0.25794,10.02527 0.80554,1.36481 7.41223,1.42761 9.23742,1.57355 -0.0994,3.42322 0.11622,6.88 0.0186,10.30768 -0.36572,12.85809 -1.63782,28.40283 -0.56934,41.13128 0.0608,0.7226 0.51783,3.93488 1.33863,3.93488 h 10.81054 v 21.62109 c 4.96558,1.23493 10.24866,0.083 15.29297,0.52735 v 15.02929 c 0,0.0559 0.73511,0.79102 0.79102,0.79102 h 15.02929 c 0.10389,3.5968 -0.13195,7.23102 -0.0225,10.83197 0.0349,1.14752 0.51819,2.13946 0.57312,3.16693 0.0712,1.33111 -1.31848,3.35553 0.31971,3.85315 0.20019,0.0608 3.93029,0.60498 4.1394,0.60498 h 12.91992 v 42.97851 c 0,0.0559 0.73511,0.79102 0.79102,0.79102 h 19.77539 c 0.25586,3.18237 -0.5708,6.77625 -0.57617,9.75586 -0.003,1.49206 0.55944,2.78229 0.59765,4.19684 0.0453,1.66986 -0.47461,8.35956 0.5,9.02838 0.37696,0.31695 0.66455,-0.3053 0.79688,-0.3053 h 26.10351 v 21.35742 h 123.92578 v -20.30273 l 30.58594,-0.79102 v -17.66601 h 27.68555 c 0.0559,0 0.79101,-0.73511 0.79101,-0.79102 v -16.08398 h 34.01368 c 0.0559,0 0.79101,-0.73511 0.79101,-0.79102 V 628.152 c 0,-0.16059 -0.6676,-0.40485 -0.52734,-0.79102 h 40.07812 v -11.33789 l 62.7533,-1.32031 c -0.0306,3.07684 0.0342,6.16962 0.0261,9.25317 -0.004,1.34058 -1.10803,2.59754 0.26648,3.3722 l 27.65723,-0.49451 v 17.66601 c 0,0.30079 -0.38599,1.84571 0.79101,1.84571 h 28.74024 c 0.24878,0.96667 -1.00904,0.18841 -1.06092,0.79095 -0.0499,0.51789 1.06092,0.18543 1.06092,0.26374 v 27.68554 c 0,0.0926 0.60461,0.69061 0.83032,0.73743 l 29.75562,0.0536 v 26.10351 c 0,0.0559 0.7351,0.79102 0.79101,0.79102 h 29.53125 c 0.28613,0 0.84216,-0.89398 0.81787,-1.3324 l -0.63183,-28.12579 c -6.2002,0.0122 -12.45899,-0.2641 -18.6648,-0.0948 -1.33056,0.0363 -9.73413,1.5578 -9.73413,-0.24188 v -28.47657 c 0,-0.57745 -1.28735,-0.75549 -1.81885,-0.81787 -8.46997,-0.9942 -18.34289,0.95044 -26.92224,0.55506 l -1.08728,-0.49469 c -0.92798,-9.47046 0.64356,-19.0083 0.29785,-28.51203 l 27.71485,0.47394 c 0.44238,0.0915 1.28833,-0.45795 1.28833,-0.73566 v -24.52148 l 32.19275,-0.24457 0.49987,-29.81677 31.64331,-0.5246 v -32.16797 h 26.10352 c 0.0559,0 0.79102,-0.7351 0.79102,-0.79101 v -49.30664 l 14.23803,0.002 2.5e-4,-92.81408 H 739.5119 v 90.17578 c -0.51758,-0.17127 -1.14405,0.52734 -1.31836,0.52734 H 722.6369 v 49.30664 c 0,0.0559 -0.73511,0.79102 -0.79102,0.79102 h -30.32227 v 29.53125 l -32.48388,0.0247 c -0.43946,-0.12055 -1.26612,0.54089 -1.26612,0.76635 v 24.78516 c 0,0.17316 1.0503,1.12256 0.26185,1.32098 l -150.28211,-0.54229 c -2.71484,0.51593 -0.8418,7.0169 -0.77832,9.21905 0.041,1.41889 0.21851,9.948 -0.33728,10.36072 l -40.81726,0.73529 v 17.40234 c 0,0.13239 0.62231,0.41993 0.30542,0.79688 l -1.09155,0.52771 -32.67212,0.0247 c -1.46338,0.76202 -0.20996,1.7442 -0.28931,2.86957 -0.3385,4.79858 -0.84668,9.63031 -0.5271,14.50451 l -27.69238,0.5174 c -1.1853,1.52716 -0.11524,3.08642 -0.21948,4.48608 -0.35279,4.732 -1.33081,9.84149 -0.04,14.50556 h -30.84961 c -0.0559,0 -0.79102,0.73504 -0.79102,0.79101 v 19.77539 H 252.77361 v -21.88476 c 0,-0.57746 -1.28735,-0.7555 -1.81884,-0.81787 -4.65454,-0.54633 -9.79517,0.55969 -14.26514,0.60315 -3.60205,0.035 -7.45801,-1.34711 -11.33545,-0.0482 l -0.52978,-48.51636 h 45.8789 v 12.39258 l 104.41406,0.52734 v -13.44726 l 30.58594,-0.26368 v -20.5664 c 0,-0.57746 -1.28735,-0.75549 -1.81885,-0.81787 -2.37793,-0.27912 -16.02612,0.58972 -16.6311,0.0192 0.10352,-1.18585 -0.49341,-6.84778 0.78394,-6.84778 h 17.13867 c 0.61352,1.47907 -1.27234,6.45081 0.30444,6.8014 l 22.37134,-0.47327 v 7.64648 c 0,0.0559 0.73511,0.79102 0.79101,0.79102 h 18.19336 V 581.2184 c 0,-3.08508 -2.29296,-1.33526 -4.4613,-1.29345 -4.30896,0.0831 -8.64001,-0.11432 -12.94372,-0.0222 0.0901,-3.07226 -0.10425,-6.17572 -0.0225,-9.25268 0.0222,-0.83222 1.09107,-3.9336 -0.23852,-3.9336 h -23.4668 v -17.13867 h -61.17187 v 11.33789 h -12.65625 c 0.31421,-0.70978 0.73022,-2.63672 -0.26368,-2.63672 h -13.9746 c -0.30481,0.73767 0.52734,1.58008 0.52734,1.8457 v 12.91993 h 25.83984 v 24.52148 c 0,0.17584 1.04932,1.11633 0.26221,1.32056 l -71.98364,5.5e-4 c -0.23755,-2.02283 0.84753,-8.12513 -1.40259,-8.88092 l -29.7096,0.44305 0.002,-5.80316 H 226.6701 c -0.0559,0 -0.79102,-0.73511 -0.79102,-0.79102 v -10.01953 c 0,-0.056 -0.7351,-0.79101 -0.79101,-0.79101 h -15.82032 c -0.0559,0 -0.79101,-0.73511 -0.79101,-0.79102 v -17.40234 c -0.58142,-1.26007 -5.04175,-0.67176 -5.30493,-1.64295 l -0.42078,-33.34765 c 1.61658,-1.52411 5.57324,0.83441 6.54944,-0.5755 0.91162,-1.37763 -0.66345,-7.41242 0.49463,-7.41242 h 8.70117 c 1.20313,-3.61371 -0.56226,-7.31189 -0.003,-11.07696 l 19.67199,-0.63074 c 2.80554,-0.82709 0.88733,-8.53974 0.90076,-10.96674 4.24121,0.55707 8.71069,-1.68194 13.18262,-1.05334 -0.35328,-4.27118 1.75927,-27.48023 0.29467,-29.56525 -0.85791,-1.22131 -3.89941,0.009 -5.28515,0.053 -4.12671,0.13135 -8.29151,-0.14123 -12.41455,-0.0217 v 16.875 c -1.1416,0.70166 -8.58216,0.61127 -8.98889,0.27881 -1.94251,-1.58777 1.67797,-7.10583 -2.38941,-7.60651 -2.99255,-0.36828 -28.58398,-0.70349 -29.7904,0.17225 -0.76551,0.55578 -0.77002,3.91076 -0.49085,5.04333 -1.23694,0.23566 -8.15015,-0.30682 -8.44055,-6.1e-4 -0.18164,0.19147 0.5105,4.02197 -1.40271,4.66254 l -35.1582,-1.2e-4 c -2.13843,-0.71576 -0.90418,-5.78345 -2.28296,-6.81836 -1.01697,-0.76325 -5.47791,0.55023 -7.03528,0.0525 l 0.55005,-27.40454 c 4.60351,-0.63086 9.31201,-0.70881 13.97632,-0.57123 0.89856,0.0265 4.46069,1.18909 4.46069,-0.23975 v -28.21289 l 19.27612,-0.12903 c 0.45972,-0.0955 1.29029,-2.44024 1.29029,-2.77136 V 385.3102 h 19.77539 c 1.17382,0 0.26367,-1.23279 0.26367,-1.31836 v -26.63086 h 18.45703 V 336.5309 c 0,-0.42858 1.29175,-0.96307 1.83984,-0.84033 1.84766,0.0407 10.10645,0.96704 11.32105,0.3291 1.77917,-0.93438 0.39929,-6.66687 0.52588,-9.00531 0.0723,-1.33557 0.26196,-2.59546 0.60742,-3.87298 2.63696,0.26361 5.07385,-0.40955 7.58301,-0.62549 2.96191,-0.25494 4.48999,1.80133 4.48999,-2.85999 v -42.45117 h -17.40235 v -37.4414 h 24.25782 v -27.42188 h 22.93945 c 0.0559,0 0.79101,-0.73511 0.79101,-0.79101 v -25.57618 c 6.34156,-0.38952 14.17041,0.74976 20.32959,0.0269 0.5315,-0.0624 1.81885,-0.24042 1.81885,-0.81787 V 165.9352 h 25.04883 c 0.0559,0 0.79102,-0.73511 0.79102,-0.79101 v -15.0293 h 24.25781 v -10.81055 c 0,-0.16131 -0.72388,-0.75049 -0.52735,-1.31836 h 27.68555 c 0.0559,0 0.79102,-0.7351 0.79102,-0.79101 v -15.55664 h 36.38672 v -9.75586 c 0,-1.16669 -0.10279,-2.91523 1.31347,-2.91797 l 28.93018,0.49243 c 2.02221,-0.67017 -0.13989,-5.16058 0.34228,-6.80298 h 49.83399 c 0.42602,0 0.64721,-0.85956 0.72729,-1.28052 0.48413,-2.543392 -1.23364,-7.83923 -0.46362,-10.848385 H 610.049 c 0.16138,0 0.75049,-0.723938 1.31836,-0.527344 v 9.492188 L 592.518,99.06368 c -0.42334,-0.198364 -1.1897,0.503052 -1.1897,0.689881 v 21.357419 h -23.73047 l 0.005,29.52735 25.83472,-0.78711 v -21.88477 l 19.37671,0.42621 c 0.42334,0.1983 1.18969,-0.50311 1.18969,-0.68988 V 103.1813 h 20.30274 c 0.0898,0 0.62549,-0.53461 0.66296,-0.76801 l 0.13245,-21.91034 24.56933,0.505249 c 0.43946,0.120484 1.26612,-0.540954 1.26612,-0.766357 V 59.939108 l 30.05859,-0.791016 V 39.372701 h 73.82813 v 19.248047 c 0,0.05591 0.7351,0.791016 0.79101,0.791016 h 20.30274 v 20.830078 c 0,0.186768 0.76635,0.888184 1.18969,0.68988 4.06104,-0.09796 12.23462,-1.297973 15.87073,-0.453979 0.5863,0.136108 0.49085,0.881348 0.61658,1.343323 l -0.27466,98.352414 h -10.81055 c -0.0559,0 -0.79101,0.73505 -0.79101,0.79102 v 12.91992 H 775.1076 c -0.0559,0 -0.79102,0.73505 -0.79102,0.79102 v 61.43554 h -25.04883 c -0.0559,0 -0.79101,0.73505 -0.79101,0.79102 v 37.96875 c 0,0.12048 1.00073,0.70318 0.26172,0.79358 l -26.41089,-0.0335 -0.24304,26.64508 0.89367,1.25867 43.65088,0.0151 0.83081,-1.25964 0.0814,-18.40631 c 0.0604,-0.26679 0.58741,-0.83917 0.71082,-0.83917 h 26.10352 v -18.72071 c 0,-0.0856 -0.91016,-1.31836 0.26367,-1.31836 h 18.98437 c 0.0857,0 1.31836,0.91016 1.31836,-0.26367 v -54.58008 c 5.89563,1.51581 11.95264,-0.42395 17.92969,0 v 11.33789 c 0,1.17383 1.23291,0.26368 1.31836,0.26368 h 19.77539 l -0.52734,29.53125 h 30.05859 l 0.004,32.16967 c 0.53308,0.20246 1.10388,-0.52905 1.31482,-0.52905 h 27.1582 v 39.02344 h 26.10352 c 0.17309,0 1.12256,-1.05023 1.32104,-0.26178 l -0.003,161.10162 h 26.63086 l 0.79101,-181.93359 z M 367.73455,570.40786 h 18.45703 v 7.91015 c -3.23193,-1.69055 -16.36108,0.88385 -17.96289,-0.22998 -1.0747,-0.74731 -0.22998,-6.14734 -0.49414,-7.68017 z m -21.08996,-7.91034 c 0.69079,-0.31311 1.55554,0.52753 1.84191,0.52753 h 18.72071 c 0.48865,2.39819 -1.05799,4.72235 0,6.85546 h -21.09375 c 0.0474,-2.48278 -0.29346,-4.99841 0.53113,-7.38299 z m -181.93421,-42.71735 0.52417,8.44019 h 8.96485 c -0.71656,2.33319 -0.7793,4.52429 0,6.85547 h 8.96484 l 0.23169,16.88647 c 0.51916,0.73132 7.29968,1.0296 8.73584,1.04059 l 0.52466,20.56903 h 10.2832 c 0.14258,0 1.81274,0.62506 1.87671,0.8559 l 0.49634,18.65582 H 188.174 c -0.19873,0 -1.8457,-1.19843 -1.8457,-1.31836 v -12.91992 l -13.71277,-0.52454 -0.52575,-21.35992 c 0.0183,-0.43201 -0.49366,-1.31867 -0.79078,-1.31867 h -12.91992 l -1.05688,-36.38836 z m 67.49658,-226.22265 c -0.87158,5.44024 -0.62805,11.5567 -0.5531,17.16534 0.0189,1.41095 1.15686,2.56311 -0.76196,2.86829 -2.01453,0.32031 -4.10364,-0.22663 -6.0686,-0.52985 -0.20142,-0.54175 0.52844,-1.11853 0.52844,-1.31555 v -18.19336 z m 178.76978,-195.649662 -37.44409,-0.0027 0.53003,15.295719 H 342.9494 V 58.88442 h 30.05859 v 13.97461 c 0,0.08984 0.53198,0.624389 0.76916,0.659301 l 19.2699,0.131714 v 11.074219 c 2.87818,-0.242981 5.86719,0.552429 8.69922,0.572571 1.22961,0.0087 2.43274,-0.588806 3.69385,-0.621277 1.87817,-0.04828 3.52441,0.854126 5.53662,0.04871 z"
     id="path9" />
  <path
     d="m 501.94354,562.4977 c 0.0559,0 0.79101,-0.73511 0.79101,-0.79101 v -11.07422 c 0,-0.056 -0.73511,-0.79102 -0.79101,-0.79102 h -25.3125 c -1.42896,0 -0.28968,-3.13507 -0.30835,-3.89789 -0.0195,-0.79181 -0.49439,-1.64447 -0.50928,-2.67016 -0.01,-0.68347 1.27295,-3.97882 -0.23706,-3.97882 h -37.44141 c -0.0991,0 -0.68237,-0.59833 -0.73376,-0.8324 -0.18884,-0.86096 1.56726,-8.7486 -0.40808,-9.20844 -4.23975,-0.0539 -28.88953,1.64679 -30.7959,0.31849 -0.8158,-0.56843 -0.55713,-9.42463 -0.51978,-11.13086 0.0217,-1.00104 1.03089,-3.05176 -0.23779,-3.40461 h -36.12305 l 0.53003,7.3855 -24.00268,-0.547 c -0.44239,-0.0602 -1.3125,0.54535 -1.3125,0.80799 v 16.34765 c 0,0.66895 1.65027,1.25074 2.34692,1.34455 3.40918,0.45923 20.23291,-1.02423 21.38281,-0.28949 0.46143,0.2948 0.59424,1.28509 1.05603,1.58105 1.18116,0.75708 19.17347,0.14118 22.43323,0.2425 13.85938,0.4309 27.85571,1.14825 41.66785,1.62957 1.03918,0.0363 1.88366,-0.43652 2.87097,-0.5531 v 7.64649 l 38.49609,1.31836 v 10.54687 z"
     id="path10" />
  <path
     d="m 369.58819,508.17245 116.27136,0.27252 v -10.54688 l -78.75073,-0.24206 c -1.96643,-1.54798 0.21851,-8.98377 -1.71021,-9.45258 l -60.86718,1.25714 v 20.03906 c 0,0.0559 0.7351,0.79102 0.79101,0.79102 h 23.99414 c 0.1344,0 -0.32007,-2.06616 0.27161,-2.11822 z"
     id="path11" />
  <path
     d="m 332.66619,541.9313 c 0.0559,0 0.79102,-0.73511 0.79102,-0.79102 v -13.71094 c 0,-0.4375 -1.28504,-0.92889 -1.82276,-0.82641 l -15.0686,0.25622 c -1.00952,0.698 -0.40662,12.79224 -0.51099,15.07215 z"
     id="path12" />
  <path
     d="m 332.92986,510.29067 v -14.76562 h -17.13867 c -1.17383,0 -0.26367,1.23278 -0.26367,1.31835 v 13.44727 c 5.83398,0.86743 11.51807,-0.30975 17.40234,0 z"
     id="path13" />
  <path
     d="m 286.25994,542.45864 h 15.82031 c 0.0559,0 0.79102,-0.73511 0.79102,-0.79102 v -13.18359 c 0,-0.056 -0.73511,-0.79102 -0.79102,-0.79102 h -15.82031 c -0.17383,0.26777 -0.79101,0.64679 -0.79101,0.79102 v 13.18359 c 0,0.0559 0.7351,0.79102 0.79101,0.79102 z"
     id="path14" />
  <path
     d="m 304.18963,573.04458 c 0.0559,0 0.79102,-0.73511 0.79102,-0.79102 V 558.8063 l -17.41846,-0.3042 c -1.34912,0.98901 -0.11353,12.21649 0.0161,14.54248 z"
     id="path15" />
  <path
     d="m 285.46893,510.55434 c 0,1.21143 2.5874,0.25604 3.40466,0.23767 3.63538,-0.0817 8.20813,0.45697 11.65149,0.0529 0.53149,-0.0624 1.81885,-0.24042 1.81885,-0.81787 v -12.65625 c 0,-0.056 -0.73511,-0.79102 -0.79102,-0.79102 h -16.61133 c -0.30481,0.73767 0.52735,1.58008 0.52735,1.84571 z"
     id="path16" />
</svg>
