<?xml version="1.0" encoding="UTF-8" standalone="no"?>
<svg
   id="_图层_1"
   data-name="图层 1"
   viewBox="0 0 1080 1080"
   version="1.1"
   sodipodi:docname="logo-light.svg"
   inkscape:version="1.4.3 (0d15f75, 2025-12-25)"
   xmlns:inkscape="http://www.inkscape.org/namespaces/inkscape"
   xmlns:sodipodi="http://sodipodi.sourceforge.net/DTD/sodipodi-0.dtd"
   xmlns="http://www.w3.org/2000/svg"
   xmlns:svg="http://www.w3.org/2000/svg">
  <defs
     id="defs11" />
  <sodipodi:namedview
     id="namedview11"
     pagecolor="#ffffff"
     bordercolor="#000000"
     borderopacity="0.25"
     inkscape:showpageshadow="2"
     inkscape:pageopacity="0.0"
     inkscape:pagecheckerboard="0"
     inkscape:deskcolor="#d1d1d1"
     inkscape:zoom="0.34885734"
     inkscape:cx="252.25211"
     inkscape:cy="382.67792"
     inkscape:window-width="944"
     inkscape:window-height="764"
     inkscape:window-x="0"
     inkscape:window-y="38"
     inkscape:window-maximized="0"
     inkscape:current-layer="_图层_1" />
  <path
     d="m 813.61099,370.70898 160.87,0.5 v -19.88 l -164.22,-0.77 v 12.39 h -71.26 c -0.14,-0.38 0.52,-0.62 0.52,-0.77 v -24.01 l -25.82,-0.52 v -21.95 c 0,-1.75 -8.75,-0.3 -10.01,-0.31 -0.77,0 -1.66,-0.48 -2.62,-0.49 -3.96,-0.02 -8.37,-0.34 -12.15,0.54 -0.23,-5.59 0.37,-11.46 -1.04,-17.04 h 42.86 v -12.39 h 13.17 c 0.05,0 0.77,-0.72 0.77,-0.77 v -12.14 h 12.91 v -32.02 l 22.21,0.52 v -25.05 l -93.99,-0.26 v 11.36 h -15.75 c -0.49,0 -1.73,-1.07 -2.25,0.89 -0.39,1.48 1.56,9.13 -0.04,10.24 l -20.61,0.3 c -1.01,1.68 0.63,11.62 -0.08,12.32 l -59.91,-0.52 v 13.43 h -18.33 c -1.3,0 -0.26,3.04 -0.23,3.85 0.13,4.73 -0.14,9.5 -0.02,14.22 h 20.14 v -10.59 c 0,-0.26 -0.82,-1.08 -0.51,-1.8 h 39.24 c 0,0 0,12.39 0,12.39 l -16.99,0.56 c -0.35,2.78 1.03,5.61 0.47,8.73 h -11.36 v 9.04 c 0,0.16 0.71,0.73 0.51,1.29 l -13.42,-0.51 v 16.78 c 0,0.05 0.72,0.77 0.77,0.77 h 17.04 c 1.55,0 0.29,-4.12 0.26,-4.91 -0.08,-2.15 0.04,-4.31 0,-6.45 h 13.94 v -9.3 h 30.21 c 0.15,0 0.59,-0.73 1.03,-0.04 0.89,0.97 0.26,1.35 0.26,1.85 v 18.59 c 0,0.05 0.72,0.77 0.77,0.77 h 33.31 v 20.91 c 0,0.05 0.72,0.77 0.77,0.77 h 24.53 l -0.51,22.72 -21.18,-0.52 v 18.07 c 3.38,-0.47 21.26,0.82 22.75,-0.23 1.27,-0.89 -0.07,-10.93 0.48,-13.2 h 20.4 c 0.16,0 0.4,-0.65 0.77,-0.52 v 28.14 c 0,0.05 -0.72,0.77 -0.77,0.77 h -16.52 c -1.15,0 -1.03,5.63 -0.26,6.71 l -24.81,-0.28 0.25,16.33 42.12,-0.03 v 21.69 l -42.54,-0.48 c -1.4,0.4 -0.77,5.88 -0.84,7.44 -0.1,2.2 -0.11,3.53 -0.1,5.69 0,0.78 -1.17,4.9 0.36,4.9 h 25.82 c 0.21,0 0.62,-0.92 1.29,0.28 l -0.51,18.32 -112.58,0.52 c 0.1,-3.01 -0.11,-6.05 -0.02,-9.06 0.04,-1.38 1.39,-4.25 -0.31,-4.81 l -48.21,0.44 v -34.6 h 15.75 c 1.4,0 0.24,-7.35 0.23,-8.49 -0.01,-3.39 0.86,-6.35 0.03,-9.58 h 16.27 c 0.79,-0.95 0.75,-3.43 0.8,-4.88 0.08,-2.2 0.06,-4.55 0,-6.76 -0.02,-0.86 -1.07,-3.85 0.23,-3.85 h 14.98 c 1.52,0 1.77,-11.35 0.77,-12.91 l 19.08,-0.55 c 0.04,-1.3 0.48,-2.53 0.56,-3.83 0.44,-6.7 0.76,-19.97 0,-26.38 -0.06,-0.52 -0.24,-1.78 -0.8,-1.78 h -38.73 c -1.49,0 -0.29,3.62 -0.26,4.4 0.04,1.29 0.41,9.03 -0.77,9.03 h -84.17 c -0.17,0 -0.78,-0.68 -1.29,-0.52 v -12.14 c 0,-0.05 -0.72,-0.77 -0.77,-0.77 h -39.51 v 27.63 c 0,0.64 0.64,4.08 1.36,4.32 2.47,0.46 16.72,0.08 17.78,0.81 1.49,1.03 -0.84,12.68 1.77,12.68 h 15.23 v 14.72 c 0,0.29 0.87,0.79 1.29,0.77 l 15.23,0.52 v 17.04 c 0.51,-0.17 1.12,0.52 1.29,0.52 h 15.23 v 34.08 h -49.57 v 12.14 c 0,0.19 -0.53,0.84 -0.6,1.21 l -0.67,0.12 -110.27,0.48 c 0.47,-6.42 -1.18,-12.76 0,-19.11 h 26.08 c 1.86,0 1.36,-8.79 1.31,-10.61 -0.03,-1.23 -0.51,-2.32 -0.56,-3.57 -0.04,-1.11 1.44,-3.25 -0.31,-3.82 l -43.05,0.17 0.52,-21.43 c 1.63,0.04 3.27,-0.07 4.9,0 9.99,0.47 24.89,1.68 34.63,0.54 0.52,-0.06 1.78,-0.24 1.78,-0.8 v -13.94 c 0,-1.28 0.97,-1.99 -1.78,-2.35 -7.22,-0.94 -15.67,1.12 -23,0.54 0.4,-1.45 1.31,-6.61 -0.33,-7.16 l -15.54,0.87 c -0.41,0.19 -1.16,-0.49 -1.16,-0.68 v -28.66 h 21.69 c 0,0 0.51,13.94 0.51,13.94 h 21.69 c -0.17,-0.51 0.52,-1.12 0.52,-1.29 v -16.01 c 0,-0.57 -1.26,-0.74 -1.78,-0.8 -4.02,-0.47 -10.76,-0.12 -15.02,0 -0.88,0.03 -4.37,1.16 -4.37,-0.23 v -21.95 h 24.79 v -21.69 h 33.82 c 0.05,0 0.77,-0.72 0.77,-0.77 v -20.4 l 32.02,0.52 v 8.52 c 0,1.15 1.21,0.26 1.29,0.26 h 11.62 c -0.06,2.48 0.08,4.99 0,7.48 -0.02,0.72 -1.16,3.88 0.26,3.88 h 17.3 c -0.76,-3.33 1.26,-14.86 -0.23,-17.07 -1.2,-1.78 -10.7,0.85 -12.2,-0.2 -0.78,-0.54 -0.53,-4.53 -0.51,-5.74 0.02,-0.85 1.01,-4.36 -0.23,-4.36 h -9.55 v -8.78 h -17.56 v -13.43 l 38.22,0.51 c 0.64,1.83 -1.14,11.4 -0.03,12.17 0.88,0.62 12.95,0.13 15.29,0.2 0.93,0.03 5.4,1.3 5.4,-0.24 v -17.04 c 0,-0.05 -0.72,-0.77 -0.77,-0.77 h -18.33 v -12.91 l -58.87,-0.77 v -11.62 h -21.18 c -0.71,-2.01 1.38,-10.19 0.03,-11.14 -1.63,-1.15 -14.64,0.5 -17.59,-0.23 v -10.59 c 0,-0.05 -0.72,-0.77 -0.77,-0.77 h -92.69 l -0.42,23.62 c -0.19,0.41 0.49,1.17 0.68,1.17 h 21.43 c 0.68,9.67 -1.66,20.7 -0.54,30.24 0.06,0.52 0.24,1.78 0.8,1.78 h 12.14 v 12.91 h 13.94 c 0.19,0.56 -0.52,1.13 -0.52,1.29 v 10.33 c 0,0.43 1.25,0.91 1.78,0.8 l 41.08,-0.03 v 15.23 c 0,0.26 0.82,1.08 0.51,1.8 l -25.33,-0.29 0.03,23.01 h -25.05 c -0.14,0 -0.65,0.58 -0.72,0.85 l 0.42,23.1 c -0.06,0.24 -0.62,0.84 -0.74,0.84 h -71.52 c -0.47,-1.9 0.86,-12.13 -0.34,-12.42 l -163.87,0.8 v 19.62 l 161.63,0.26 c -0.43,1.4 -0.62,10.92 -0.29,11.39 0.15,0.22 0.37,0.35 0.62,0.41 l 55.18,-0.45 c 0.72,0.09 -0.26,0.66 -0.26,0.78 v 14.98 c 0,1 0.05,2.96 1.27,3.15 l 22.49,-0.31 v 9.04 l -87.79,0.26 0.52,11.88 h -52.67 v -41.83 h -27.63 c -1.72,0 -0.24,7.26 -0.21,8.52 0.02,0.96 -0.39,1.9 -0.37,2.67 0.19,10.37 0.39,20.75 0.32,31.15 h 27.37 c -0.24,3.48 -0.68,7.5 0,10.84 h -70.23 v 13.43 h -28.66 c -0.43,0 -0.91,1.25 -0.8,1.78 l 0.54,19.39 h 30.73 c 0.05,0 0.77,-0.72 0.77,-0.77 v -11.88 c 0,-0.17 -1.03,-1.1 -0.26,-1.29 l 59.31,0.08 c 1.76,0.59 0.36,3.83 0.31,5.33 -0.3,9.71 0.27,19.49 0.02,29.2 l 25.82,-0.52 v 11.88 c -0.56,0.19 -1.13,-0.52 -1.29,-0.52 h -24.53 l 0.52,14.98 h -23.24 v 16.01 h -20.91 c -0.57,0 -0.74,1.26 -0.8,1.78 -0.41,3.51 -0.25,12.35 0,16.06 0.04,0.63 0.16,2.67 0.88,2.84 l 22.38,0.25 c 1.66,-1.46 0.51,-2.97 0.49,-4.64 -0.04,-4.22 0.08,-8.46 0.02,-12.67 h 22.46 c 0.05,0 0.77,-0.72 0.77,-0.77 v -14.72 h 24.53 c 0.05,0 0.77,-0.72 0.77,-0.77 v -12.65 h 24.27 v -12.91 c 0.38,-0.14 0.62,0.52 0.77,0.52 h 41.31 c 0.05,0 0.77,-0.72 0.77,-0.77 v -15.75 l 42.35,-0.52 v 10.07 c 0,1.16 8.71,0.85 10.09,0.8 1.47,-0.05 2.87,-0.73 4.37,-0.54 v 52.67 l 20.13,-0.52 c 1.01,9.48 -1.63,20.45 -0.54,29.72 0.06,0.52 0.24,1.78 0.8,1.78 h 18.85 l -0.54,34.33 c -0.02,0.43 0.52,1.3 0.8,1.3 h 17.82 c 0.48,2.86 -0.46,5.84 -0.54,8.5 -0.11,3.8 0.02,7.64 0,11.36 -0.02,4.33 -0.48,10.44 0,14.51 0.06,0.52 0.24,1.78 0.8,1.78 h 14.2 l -0.52,28.92 c 4.65,-0.06 9.37,0.26 13.94,-0.52 0.31,4.35 -0.25,8.76 -0.32,13.08 -0.01,0.64 0.38,1.39 0.36,2.15 -0.04,1.4 -1.29,4.3 -0.05,5.21 l 19.12,-0.3 c -0.13,2.73 -1.32,15.6 -0.29,17.08 0.15,0.22 0.36,0.35 0.62,0.41 47.81,0.13 95.66,0.13 143.51,0.04 7.99,-0.01 19.18,0.96 26.86,0.05 0.52,-0.06 1.78,-0.24 1.78,-0.8 v -16.27 c 6.28,-0.87 12.73,0.37 19.14,-0.23 0.78,-0.54 0.57,-13.42 0.51,-15.55 -0.05,-1.55 -0.53,-2.85 -0.54,-4.36 3.35,0.08 6.73,-0.1 10.09,-0.03 0.73,0.02 3.33,0.95 3.33,-0.23 v -28.66 h 15.49 v -36.15 h 17.3 c 0.05,0 0.77,-0.72 0.77,-0.77 v -34.86 h 18.33 c 0.05,0 0.77,-0.72 0.77,-0.77 v -30.73 c 0.72,-0.3 1.55,0.52 1.81,0.52 h 18.33 l -0.52,-52.67 h 14.72 c 1.43,0 0.27,-8.49 0.26,-9.81 h 42.35 v 16.52 l 42.34,-0.51 c -0.14,0.95 -0.51,1.82 -0.54,2.81 -0.06,1.9 -0.53,9.1 1.06,9.86 l 23.75,0.23 v 12.14 c 0,0.17 0.68,0.78 0.52,1.29 h 25.3 v 14.72 c 0,0.05 0.72,0.77 0.77,0.77 h 21.95 v 17.04 h 21.95 c 0.29,0 1.81,0.38 1.81,-0.77 v -19.11 c 0,-2.2 -6.78,-0.78 -7.98,-0.75 -4.56,0.09 -9.15,-0.11 -13.71,-0.02 0.31,-4.4 1.06,-9.86 0.54,-14.23 -0.06,-0.52 -0.24,-1.78 -0.8,-1.78 h -22.46 v -14.2 c 0,-0.05 -0.72,-0.77 -0.77,-0.77 h -24.53 l -0.52,-11.36 h 25.82 v -34.6 l 59.39,0.51 c -0.1,3.18 0.11,6.39 0.02,9.58 -0.03,0.88 -1.16,4.37 0.23,4.37 h 30.73 c -0.17,-0.51 0.52,-1.12 0.52,-1.29 v -19.11 c 0,-0.57 -1.26,-0.74 -1.78,-0.8 -6.68,-0.78 -17.7,-0.11 -24.85,0 -0.7,0.01 -2.81,0.8 -2.81,-0.23 v -12.91 l -69.2,-0.26 0.52,-10.85 h 26.59 c 1.3,0 0.26,-3.04 0.23,-3.85 -0.25,-9.6 -0.21,-19.87 0,-29.48 0.03,-1.55 1.63,-9.01 -0.75,-9.01 h -27.11 v 41.83 c 0,0 -52.67,0 -52.67,0 v -11.88 l -87.27,0.52 v -9.3 l 22,-0.02 c 0.43,0.12 1.24,-0.54 1.24,-0.75 v -18.33 l 54.4,0.02 c 1.48,-0.35 0.6,-9.02 0.55,-10.82 -0.02,-0.63 0.04,-0.66 0.56,-1.05 z m -144.33,-88.32 c 0.8,-1.74 -0.05,-3.12 -0.02,-4.88 0.03,-1.55 1.49,-4.15 -0.19,-5.5 -1.43,-1.16 -2.84,0.08 -4.21,0.07 -1.24,0 -2.22,-0.48 -3.13,-0.49 -1.2,-0.02 -5.37,1.1 -5.37,-1.34 v -12.65 c 1.32,0.14 2.48,0.5 3.85,0.54 3.97,0.12 7.43,-0.4 11.33,-0.08 0.52,0.04 1.25,-0.5 1.59,-0.46 1.22,0.13 0.27,1.22 0.27,1.29 v 9.3 c 0,0.05 0.72,0.77 0.77,0.77 h 28.66 c 0.74,-2.43 0.36,-4.29 0,-6.71 h 7.75 v -26.34 h 23.24 v 33.57 h -16.52 v 12.91 h -48.03 z m -304.68,0 v -11.62 c 0,-0.09 -1.2,-1.29 -1.29,-1.29 h -15.23 l -0.52,-33.57 22.72,0.52 v 25.05 c 0,1.3 6.01,0.62 7.23,0.78 -0.41,1.53 -1.29,6.1 0.33,6.64 l 26.28,0.08 c 0.68,0.14 2.83,-0.84 2.83,-1.3 v -9.3 c 0,-0.16 -0.65,-0.4 -0.52,-0.77 h 17.3 c 1.15,0 0.26,1.21 0.26,1.29 v 13.17 c -2.96,0.77 -8.8,-0.93 -11.23,-0.4 -0.38,0.08 -1.17,0.25 -1.17,0.66 v 9.81 l -46.99,0.26 z m -18.07,174.54 -55.43,0.08 c -1.41,0.44 -0.34,2.03 -0.31,3.26 0.09,4.08 0.01,8.13 -0.54,12.16 h -42.35 c -0.86,1.89 0.63,13.34 0,13.95 l -23.24,0.52 0.46,-35.58 c -1.42,-1.66 -15.16,1.02 -17.8,-0.57 -0.31,-0.37 0.3,-0.65 0.3,-0.78 v -8 l 53.36,0.54 c 1.76,-0.41 0.2,-9.84 0.29,-11.64 0.03,-0.58 0.09,-1.54 0.8,-1.67 l 60.7,-0.13 0.06,19.05 23.7,-0.46 v 9.3 z m 255.1,27.37 -0.76,28.41 c -1.41,2.49 -15.73,1.68 -16.19,0.94 0.21,-0.87 -0.6,-2.31 -0.6,-2.75 v -12.14 l -87.79,0.77 v 13.94 c 0,0.05 -0.72,0.77 -0.77,0.77 -3.77,0 -10.64,0.6 -13.94,0 -1.41,-0.26 -1.68,-1.61 -1.81,-2.83 -0.86,-7.94 0,-16.87 0.04,-24.79 0,-0.69 -0.35,-1.2 -0.55,-1.81 l 122.39,-0.52 z m -106.63,86.24 c 0.4,-0.12 0.75,-0.83 0.77,-1.29 -0.37,-2.92 0.34,-6 0.42,-8.78 0.03,-1.09 -0.97,-5.47 0.42,-5.88 l 38.41,0.46 c 0.2,0.56 -0.51,1.13 -0.51,1.29 v 8.78 c 0,1.3 3.04,0.26 3.85,0.23 3.18,-0.08 6.39,0.12 9.57,0.02 0.2,-0.56 -0.51,-1.13 -0.51,-1.29 v -9.04 h 35.89 c 0.26,0 1.08,-0.82 1.8,-0.51 0.82,2.7 -1.52,14.33 -0.02,15.75 1.41,1.34 15.89,-0.94 16.55,-0.26 l -0.52,54.22 h -17.04 l -0.52,24.27 -86.75,-0.52 v -22.98 c 0,-0.24 -1.14,-1.24 -1.68,-1.14 l -16.39,0.37 v -53.7 c 0,0 16.26,0 16.26,0 z m -54.5,-5.92 c -0.19,-1.61 0.64,-11.64 -0.76,-11.64 h -8.52 l -0.75,-19.13 c -0.62,-0.95 -2.83,0.1 -4.15,0.07 -1.46,-0.04 -2.88,-0.76 -4.39,-0.57 l -1.55,-36.66 h 36.15 c -1.95,12.09 -1.8,24.57 -1.87,36.83 -0.03,5.14 0.3,10.41 0.34,15.56 0.06,7.32 -0.45,14.73 0.5,21.97 l -13.95,-0.51 c 0.62,-2.28 -0.82,-3.99 -1.05,-5.93 z m 169.91,104.04 v 14.98 l -140.46,-0.52 v -13.68 c 0,-0.05 -0.72,-0.77 -0.77,-0.77 h -15.49 c -1.14,0 -1.25,-3.08 -1.29,-3.84 -1.05,-18.05 0.64,-37.12 0.02,-55.31 -0.04,-1.15 -0.53,-2.19 -0.54,-3.33 h 14.46 v 25.56 c 0,1.49 3.62,0.29 4.4,0.26 2.32,-0.08 4.65,0.05 6.96,0 -1.21,4.45 -0.28,9.16 -0.05,13.62 0.06,1.16 -1.42,3.2 0.58,4.22 1.04,0.53 1.52,-0.29 1.8,-0.29 h 10.07 l -0.33,16.72 0.67,1.4 99.85,-0.82 v -16.52 c 0,-0.05 0.72,-0.77 0.77,-0.77 h 10.84 c 0.05,0 0.77,-0.72 0.77,-0.77 v -13.94 c 0,-0.47 0.27,-2 0.77,-2.32 h 10.07 c -0.42,-2.56 0.42,-5.07 0.54,-7.47 0.22,-4.39 -0.35,-9.09 -0.02,-13.44 0.12,-1.58 0.41,-4.32 1.29,-5.43 h 12.39 l 0.26,62.49 c -5.93,0.07 -11.63,0.52 -17.56,0 z m 47.51,-135.3 c -1.97,0.37 -5.83,-0.51 -7.49,0 -1.46,0.45 -0.27,3.19 -0.23,4.37 0.08,2.6 0.16,5.74 0,8.31 -0.07,1.2 -0.33,4.7 -0.62,5.58 -0.7,2.17 -7.79,1.2 -9.74,0.85 l -1.06,18.05 c -4.4,0.89 -8.93,0.44 -13.4,0.54 -0.33,-1.87 0.48,-3.64 0.54,-5.4 0.64,-17.93 0.15,-36.37 -0.56,-54.22 -0.2,-4.94 0.5,-9.93 -1.01,-14.74 h 35.63 c 0,0 -2.06,36.66 -2.06,36.66 z m 100.18,-85.72 v -18.07 l 61.45,-0.52 v 13.43 l 54.22,-0.52 v 9.3 l -17.56,-0.52 -0.52,36.15 -23.24,-0.51 c -0.37,-3.69 0.32,-7.48 0.43,-11.07 0.02,-0.61 0.05,-2.88 -0.69,-2.88 h -42.09 c 1.07,-3.92 0.31,-8.06 0.2,-12.05 -0.03,-1 1.05,-2.85 -0.54,-3.37 l -54.95,-0.3 c -1.13,-0.8 0.71,-6.79 -1,-8.55 l 24.27,-0.52 z"
     id="path5" />
  <path
     d="m 127.57099,116.61898 0.26,80.04 h 16.78 l -0.44,25.74 c 1.46,0.98 2.8,0.08 4.3,0.05 4.22,-0.08 8.56,0.47 12.67,-0.49 -0.09,4.56 0.12,9.14 0.02,13.7 -0.04,1.7 -1.23,3.69 -0.07,5.19 1.1,1.42 2.9,0.21 4.41,0.19 4.05,-0.07 8.11,0.1 12.15,0.03 0.2,0.56 -0.51,1.13 -0.51,1.29 v 15.49 c 0,0.05 0.72,0.77 0.77,0.77 h 20.66 c 1.15,0 0.26,1.21 0.26,1.29 v 34.34 l -19.49,-0.42 -1.1,0.75 0.06,46.8 0.73,1.42 28.06,-0.28 v -43.89 c 0,-0.13 -0.61,-0.41 -0.3,-0.78 0.27,-0.39 0.63,-0.45 1.07,-0.52 2.87,-0.44 9.64,-0.09 12.94,-0.01 0.98,0.02 5.92,1.35 5.92,-0.24 v -55.26 c 0,-0.11 -0.77,-0.58 -0.52,-0.77 2.48,-0.63 19.35,0.85 19.91,0.02 0.95,-1.4 -0.33,-11.11 -0.31,-13.73 0.01,-1.19 1.51,-8.5 -0.24,-8.5 h -16.27 v -10.84 h 35.63 v -24.01 c 0,-0.57 -1.26,-0.74 -1.78,-0.8 -4.21,-0.49 -8.87,0.48 -12.92,0.56 -7.83,0.16 -15.69,-0.16 -23.52,-0.02 -0.09,-1.32 0.49,-2.54 0.54,-3.85 0.05,-1.3 0.36,-9.06 -0.8,-9.06 h -24.01 v -10.59 c 0,-0.05 -0.72,-0.77 -0.77,-0.77 h -21.43 c 0.5,-4.54 -0.31,-9.28 0,-13.94 h -18.07 l 0.52,-19.62 39.24,0.52 v 11.62 l 106.04,1.33 c 1.7,-1.76 0.37,-4 0.32,-5.95 -0.12,-4.73 0.13,-9.49 0.02,-14.22 h 27.63 c 0.57,0 0.74,-1.26 0.8,-1.78 0.62,-5.25 -0.33,-11.03 -0.29,-16.3 l 32.31,0.3 c 1.03,-0.75 0.41,-15.329997 0.48,-17.859997 2.5,0.03 5.01,-0.03 7.51,-0.02 10.32,0.02 21.02,-0.14 31.5,0 5.8,0.07 12.24,1.35 18.08,0.57 0.68,-0.09 2.3,-0.66 2.3,-1.32 v -17.3 h 224.12 c 0.52,2.65 -0.54,5.58 -0.55,8.01 -0.01,1.9 0.6,4.25 0.6,6.19 0,1.33 -1.39,3.76 0.29,4.31 l 58.79,-0.44 c 0.77,0.19 -0.26,1.12 -0.26,1.29 v 15.489997 c 0,0.57 1.26,0.74 1.78,0.8 6.12,0.72 17.36,0.28 23.8,0 2.25,-0.1 5.23,-0.6 7.46,-1.05 -0.12,4.9 0.17,9.84 0.03,14.74 -0.04,1.21 -1.11,3.43 -0.05,4.14 2.41,1.63 27.1,-1.4 28.43,-0.28 0.2,0.56 -0.51,1.13 -0.51,1.29 v 18.59 l 106.9,0.26 v -12.39 h 39.25 c 0.3,0.72 -0.52,1.55 -0.52,1.81 v 16.01 c 0,0.13 0.61,0.41 0.3,0.78 -2.95,1.96 -16.02,-1.03 -17.88,0.22 -1.06,0.71 0.01,2.93 0.05,4.14 0.1,3.35 -0.12,6.74 -0.02,10.09 h -20.91 c -1.4,0 -0.19,3.9 -0.21,4.91 -0.05,2.29 -1.11,4.12 -0.05,6.46 h -23.5 c -0.16,0 -0.73,-0.71 -1.29,-0.52 v 13.43 l -38.17,0.05 c -0.31,5.2 0.12,10.49 -0.03,15.72 -0.04,1.21 -1.5,8.5 0.24,8.5 h 35.63 c 1.15,0 0.26,1.21 0.26,1.29 v 8.26 c 0,0.21 0.98,0.38 0,1.04 -0.36,0.58 -0.59,-0.26 -0.77,-0.26 h -15.49 c -0.28,0 -0.84,0.88 -0.79,1.32 l 0.25,21.43 17.09,-0.05 1.59,0.77 -0.25,55.47 c 1.84,1.19 3.49,0.09 5.33,0.05 3.95,-0.09 9.72,-0.41 13.47,0 0.71,0.08 1.4,0.01 1.72,0.84 l 0.11,45.1 26.6,0.02 1.17,-0.83 0.51,-47.87 -1.09,-0.75 -20.01,0.42 v -35.85 c 0.15,-1.04 18.72,1.53 20.97,-0.25 1.83,-1.44 0.14,-14.17 0.21,-17.09 h 16.27 c 1.73,0 0.28,-7.24 0.24,-8.5 -0.12,-3.37 0.45,-6.83 -0.49,-10.09 l 17.49,-0.07 -0.45,-25.75 h 17.3 l 0.69,-79.17 c -1.08,-2.38 -2.98,-0.88 -4.8,-0.85 -4.22,0.07 -8.46,-0.1 -12.67,-0.02 v -16.01 h -61.19 c -0.28,0 -0.83,0.87 -0.8,1.31 0.11,1.55 0.61,9.83 -0.29,10.09 l -97.28,-0.03 V 93.158983 c 0,-1.27 -6.2,-0.47 -7.52,-1.3 l -21.92,0.53 v -18.07 h -31.76 c -0.16,0 -0.73,0.71 -1.29,0.52 v -16.78 c 0,-0.57 -1.26,-0.74 -1.78,-0.8 -7.26,-0.85 -17.33,0.06 -24.79,0.05 -10.94,-0.02 -21.88,-0.03 -32.81,-0.02 v -18.59 c -18.19,-0.05 -36.7,0.04 -55.02,0.02 -43.07,-0.03 -86.45,-0.12 -129.57,0 -13.67,1.15 -30.09,-1.62 -43.43,-0.05 -0.52,0.06 -1.78,0.24 -1.78,0.8 v 17.82 h -59.13 c -1.64,0 -0.26,5.33 -0.24,6.43 0.09,3.56 -0.44,7.07 -0.02,10.61 h -33.05 v 18.07 l -29.36,0.08 0.44,19.539997 h -98.64 c -0.49,-0.49 1.84,-9.64 -0.24,-11.43 -0.61,-0.53 -0.88,0.07 -1.05,0.07 h -59.64 c -1.31,5.22 0.08,10.71 -0.52,16.01 h -16.52 z"
     id="path6" />
  <path
     d="m 846.34099,516.38898 -27.3,-0.59 v 26.85 h -22.98 c -0.05,0 -0.77,0.72 -0.77,0.77 v 17.82 l -24.22,0.05 c -0.68,0.47 0.2,6.91 -0.02,8.5 -0.18,1.25 -1.04,1.93 -1.11,3.07 -0.12,1.91 0.87,5.72 0.87,7.99 0,0.43 -0.19,1.05 -0.56,1.05 h -24.01 l 0.52,20.66 -23.46,-0.46 c -0.83,0.32 -0.76,1.01 -0.84,1.72 -0.59,5.37 0.13,12.44 0.54,17.84 l -22.07,-0.41 c -0.41,-0.19 -1.16,0.49 -1.16,0.68 v 24.01 h -21.17 c 0.17,0.51 -0.52,1.12 -0.52,1.29 v 56.8 c 0,0.05 -0.72,0.77 -0.77,0.77 h -23.24 c -0.05,0 -0.77,0.72 -0.77,0.77 v 23.5 h -25.82 v 21.69 h -174.03 v -20.91 c 0,-0.05 -0.72,-0.77 -0.77,-0.77 h -25.05 v -23.5 c 0,-0.05 -0.72,-0.77 -0.77,-0.77 h -23.24 l -0.85,-58.27 -21.61,-0.6 v -24.27 l -22.72,-0.52 v -18.33 c 0,-0.26 -0.85,-0.85 -1.29,-0.79 l -22.99,0.53 v -20.4 c 0,-0.22 -0.81,-0.87 -1.24,-0.75 l -23.55,0.49 v -19.88 c 0,-0.57 -1.26,-0.74 -1.78,-0.8 -6.81,-0.8 -15.52,0.45 -22.49,0.29 -0.76,-0.47 -0.31,-0.82 -0.29,-1.29 0.26,-5.83 1.5,-11.76 0.29,-17.56 h -23.24 l 0.53,-25.57 c 0.06,-0.43 -0.53,-1.29 -0.79,-1.29 h -26.34 c -0.57,0 -0.74,1.26 -0.8,1.78 -0.75,6.41 0.55,13.31 0.59,19.65 0.01,2.1 -1.54,10.88 -0.08,11.91 l 21.16,0.27 -0.4,20.54 c 1.35,2.2 22.49,-1.26 24.74,0.3 1.13,0.79 -0.01,3.37 -0.05,4.66 -0.06,1.95 -0.21,14.12 0.25,14.77 l 24.04,-0.03 c -0.08,3.87 0.12,7.77 0.03,11.64 -0.05,1.86 -1.67,6.66 0.5,7.74 l 23.75,-0.27 v 20.4 c 0,0.25 0.76,0.8 1.18,0.64 l 22.57,-0.38 c -0.02,1.51 -0.49,2.81 -0.54,4.36 -0.07,2.18 -0.27,15.52 0.51,16.07 l 23.28,0.22 -1,56.99 1.25,0.85 22.46,0.52 c -0.3,8.27 -0.55,16.57 -0.25,24.78 0.11,0.24 0.94,1.04 1.03,1.04 h 23.75 c 1.15,0 0.26,1.21 0.26,1.29 v 21.43 h 26.85 v 20.4 l 178.39,0.78 c 0.53,-0.08 1.04,-0.31 1.37,-0.73 1.47,-1.86 -0.24,-17.38 0.47,-20.96 h 26.85 l -0.52,-22.72 c 3.08,0.35 24.28,1.18 25.08,0.03 1.36,-1.96 -0.55,-22 -0.29,-25.85 h 23.5 c 1.37,0 0.18,-3.1 0.21,-3.88 0.52,-13.99 0.3,-28.3 0.03,-42.32 -0.08,-4.05 0.46,-8.22 -0.49,-12.15 l 24.2,-0.07 -0.97,-20.07 23.75,0.51 v -19.88 c 0,-0.16 -0.71,-0.73 -0.52,-1.29 h 24.01 c 0.05,0 0.77,-0.72 0.77,-0.77 v -18.33 c 7.21,-0.4 15.36,1.38 22.49,0.54 0.52,-0.06 1.78,-0.24 1.78,-0.8 v -17.56 c 0,-0.26 -0.82,-1.08 -0.51,-1.8 l 24.79,0.51 v -21.17 h 21.43 c 0.22,0 0.87,-0.81 0.75,-1.24 l -0.57,-31.74 z"
     id="path7" />
  <path
     d="m 627.45099,170.32898 v 46.48 h 25.56 c 0.05,0 0.77,-0.72 0.77,-0.77 v -43.38 c 0,-0.57 1.26,-0.74 1.78,-0.8 3.77,-0.44 9.99,-0.1 13.99,0 0.81,0.02 3.85,1.07 3.85,-0.23 v -25.82 c 0,-1.74 -7.3,-0.26 -8.5,-0.24 -5.14,0.1 -10.18,-0.9 -15.29,-0.3 v 24.48 c -0.43,0 -1.08,0.58 -1.26,0.58 h -20.91 z"
     id="path8" />
  <path
     d="m 427.09099,216.79898 h 25.56 c 0.05,0 0.77,-0.72 0.77,-0.77 v -45.44 c 0,-1.72 -6.81,-0.27 -7.98,-0.24 -3.4,0.1 -8.72,0.38 -11.92,0 -0.52,-0.06 -1.78,-0.24 -1.78,-0.8 v -24.27 c 0,-1.54 -4.47,-0.27 -5.4,-0.24 -4.7,0.15 -9.79,0.11 -14.5,0 -1.17,-0.03 -2.34,-0.88 -3.09,-0.05 -0.63,7.14 0,14.33 -0.22,21.48 -0.03,0.93 -1.3,5.4 0.24,5.4 h 17.56 c 0.19,0 0.79,0.67 1.29,0.52 0.31,0.68 -0.52,1.53 -0.52,1.8 v 42.6 z"
     id="path9" />
  <rect
     x="655.83099"
     y="413.54898"
     width="22.23"
     height="17.6"
     id="rect9" />
  <path
     d="m 656.63099,374.81898 c -0.05,0 -0.77,0.72 -0.77,0.77 v 15.75 h 19.88 c 0.05,0 0.77,-0.72 0.77,-0.77 v -14.46 c 0,-0.17 -0.68,-0.78 -0.52,-1.29 h -19.37 z"
     id="path10" />
  <rect
     x="402.271"
     y="414.069"
     width="21.709999"
     height="17.09"
     id="rect10" />
  <path
     d="m 424.51099,375.59898 c 0,-0.05 -0.72,-0.77 -0.77,-0.77 h -19.11 c -0.05,0 -0.77,0.72 -0.77,0.77 v 14.98 c 0,0.17 0.56,1.24 0.87,1.31 3.26,0.78 10.22,-0.41 13.85,-0.57 2.64,-0.12 5.22,1.81 5.94,-2.29 0.57,-3.26 0,-9.74 0,-13.43 z"
     id="path11" />
  <path
     d="m 686.16216,832.31051 c -1.13996,0.0244 -2.18438,0.43969 -3.32037,0.46638 -1.74545,0.041 -4.94057,-1.64386 -5.03303,0.98257 l 0.29834,23.47508 -29.38126,-0.0127 v 23.02718 c 0,0.17734 -0.74797,0.69775 -1.1456,0.60296 l -23.1896,-0.39742 0.0112,-22.61708 -29.11661,-0.20073 V 832.32761 H 538.5047 l -0.0526,168.27479 c 1.29183,1.3441 5.10084,0.1938 6.94846,0.1566 8.67835,-0.1749 18.10245,-0.2381 26.7628,0 1.20358,0.034 5.89564,1.2375 6.38637,-0.242 L 578.1055,881.28146 c 4.36767,-0.0956 8.77245,0.12827 13.14377,0.0216 1.32419,-0.0323 2.75541,-0.96134 3.51001,0.22008 l 0.0185,25.71767 22.93346,-0.2331 v 35.68177 h 36.97895 c 0.52255,0 0.68359,-1.01291 0.74003,-1.43108 0.98566,-7.30125 -0.29204,-17.42264 -0.52111,-24.89823 -0.091,-2.97286 0.10714,-5.96845 0.0196,-8.93755 h 23.85738 v -26.13896 h 15.98446 c 0.10205,0 0.54098,-0.62073 0.71097,-0.41476 -0.004,0.48473 0.0332,0.97868 0.0267,1.46859 -0.40105,30.07689 -0.51183,60.40344 -0.51879,90.41535 -0.002,7.99386 -1.04796,19.48495 -0.004,27.00606 0.0619,0.4451 -0.0189,0.9551 0.46997,1.251 1.41156,0.8543 9.55764,-0.2287 11.70072,-0.2509 5.95275,-0.062 11.79549,0.404 17.65435,0.4488 2.67148,0.02 6.07049,0.213 8.63152,0.01 0.62924,-0.051 1.26676,0.01 1.52588,-0.6252 l 0.0545,-167.58149 -0.38018,-0.49918 c -16.07722,-0.0558 -32.37149,-0.54312 -48.48063,-0.19813 z"
     id="path1-8"
     style="stroke-width:0.843736" />
  <path
     d="m 891.8326,880.45644 c -1.44006,0 -0.19749,-2.98635 -0.21892,-3.54647 -0.20831,-5.48974 0.21362,-13.17503 -0.4725,-18.25712 -0.0564,-0.41822 -0.21759,-1.43104 -0.74002,-1.43104 h -26.4817 v -24.27189 h -55.82629 v 24.06444 c 0,0.45432 -1.16481,0.59436 -1.64572,0.64348 -4.47679,0.45693 -12.00324,0.11516 -16.74412,-0.004 -1.12096,-0.0282 -7.85328,-1.20342 -7.85328,0.19035 v 22.61228 h -24.57311 c -0.0506,0 -0.71572,0.57832 -0.71572,0.62235 v 120.11468 l 38.3978,0.021 c 0.39674,0.019 1.20546,-0.4187 1.20546,-0.6437 v -48.95858 c 0,-0.12203 -0.94943,-0.84737 -0.23383,-1.04178 h 80.87334 l -0.27049,50.23036 39.87464,0.3914 -0.24101,-120.7391 z m -15.03016,40.66059 h -81.11511 c -0.27579,-0.58041 0.47715,-1.2432 0.47715,-1.45217 v -36.30409 h 20.75593 c 1.61666,0 0.71571,-2.13598 0.71571,-2.28197 v -19.29305 h 37.21753 v 20.95266 c 0,0.14594 0.69297,0.69896 1.07546,0.54418 l 20.87588,-0.33893 z"
     id="path2-0"
     style="stroke-width:0.843736" />
  <path
     d="m 340.94613,884.00032 c -0.0195,-8.6994 0.11133,-17.40095 -0.0471,-26.09824 l -0.38017,-0.49918 c -10.12867,-0.21297 -20.46445,-0.52401 -30.56783,0.23382 v -24.6868 l -129.09893,-0.23209 -0.14138,167.79537 c 0.23183,0.7046 0.87609,0.6249 1.58022,0.7004 6.00841,0.6441 14.33597,-0.3581 20.51769,-0.4547 6.11654,-0.096 12.3801,0.1867 18.39359,0.017 0.28386,-0.5439 -0.47781,-1.2259 -0.47781,-1.4498 v -48.75119 l 84.65451,0.0464 0.27779,-25.35583 h 34.5932 c 0.52255,0 0.68359,-1.01282 0.74002,-1.431 1.26533,-9.3733 -0.0404,-23.32182 -0.0437,-33.23068 -7.7e-4,-2.19208 0.005,-4.40913 0,-6.60403 z m -40.51559,37.53165 h -79.7062 v -59.75164 h 79.7062 z"
     id="path3-2"
     style="stroke-width:0.843736" />
  <path
     d="m 517.53341,833.75965 c -0.11464,-0.81093 -0.0622,-1.36294 -1.21518,-1.43276 l -38.41348,-0.002 5.5e-4,137.74735 H 402.51762 V 832.94992 c 0,-0.0441 -0.66514,-0.62236 -0.71572,-0.62236 h -38.64897 c -0.0506,0 -0.71571,0.57832 -0.71571,0.62236 v 141.48229 c 0,0.34351 1.15675,0.73384 1.64571,0.64351 l 34.14279,-0.43823 c -0.1818,6.42257 0.22819,12.88779 0.0172,19.31233 -0.0469,1.42878 -1.49882,6.25578 0.28562,6.77078 l 82.24127,-0.1495 v -25.93141 l 36.26456,0.41676 c 0.0506,-22.33671 -0.062,-44.68641 -0.0241,-67.02866 0.0327,-19.27956 -0.29083,-38.73342 0,-58.08659 0.0784,-5.21612 1.26355,-10.94007 0.52309,-16.18155 z"
     id="path4-4"
     style="stroke-width:0.843736" />
</svg>
