<?xml version="1.0" encoding="UTF-8"?>
<svg id="_图层_1" data-name="图层 1" xmlns="http://www.w3.org/2000/svg" viewBox="0 0 1080 1080">
  <defs>
    <style>
      .cls-1 {
        fill: #d6d6d6;
      }
    </style>
  </defs>
  <path class="cls-1" d="M703.81,861.1l-1.06-.5-50.35.53v11.88h-10.07c-.29,0-2.32-.71-2.32.77v12.14l-12.39.52v13.43h-9.81v-12.65c0-.05-.72-.77-.77-.77h-11.1v-12.65c0-.18-.56-1.23-.87-1.31-1.75-.43-10.69,1.36-11.52.53v-11.1c0-1.88-4.6-.73-5.4-.75-14.49-.33-28.98.34-43.37,0-1.76-.04-3.81-1.82-3.81,1.25.02,23.03.35,46.37.45,69.19l-.32,67.45h44.48s-.29-75.43-.29-75.43c2.44,2.31,5.32,7.47,6.07,10.71.34,1.49-.42,3.28.89,4.27h8.52l.74,11.39c.47.67,7.18.99,8.56,1-.04,1.62-.06,9.84,1.36,10.29,4.2-1.73,19.67,1.57,22.42-.2.62-.4.43-.84.38-1.41-.26-2.91-.66-5.75-.41-8.68h9.81v-11.88h9.04c1.75,0,1.17-6.34,1.69-8.12.29-.97,4.06-8.16,5.27-6.86l-.29,74.91,44.19.49c.03-24.87-.03-49.76-.02-74.64,0-18.38-.51-37.25,0-55.78.07-2.62,1.16-5.33.31-8.01Z"/>
  <path class="cls-1" d="M820.23,881.79v-9.04c0-2.72-9.14.05-10.87-1.02-.4-.23-.2-7.88-.59-9.21-.68-2.32-7.26-1.25-9.47-1.37-16.88-.94-34.46-.68-51.11.03-1.65.07-8-1.13-8,1.24v8.26c0,1.55-8.88.26-10.36,1-.88.61-.35,8.29-1,10.1h-10.33l-.52,117.74h43.38v-36.15l26.11.48-.29,35.66h44.41l-.77-117.74h-10.59ZM761.36,936.02l-.03-45.99,26.36-.02.03,45.99-26.36.02Z"/>
  <path class="cls-1" d="M527.45,863.95c-.38-4.47-1.57-2.76-4.41-2.93-12.21-.73-24.22.46-36.69.13-.82-.02-3.85-1.07-3.85.23v105.86c0,.05-.72.77-.77.77h-25.05v-106.64c0-.25-.85-.86-1.29-.79l-43.64.53.78,116.71h10.59v10.07c0,1.09,2.15.16,2.83.21,2.78.2,5.59.97,8.53.57-1.12,2.11-.31,4.39-.19,6.54.07,1.23-.87,2.3.14,3.58.97,1.22,9.96.74,12.2.75,9.45.05,19.4,0,28.88,0,9.22,0,18.44-.05,27.65-.02v-10.33c2.87.45,5.86-.4,8.52-.52,1.06-.05,3.36,1.45,3.36-.77v-9.3c0-.05.72-.77.77-.77h10.33c.57,0,.74-1.26.8-1.78,1.46-12.46-1.25-27.65.52-40.28-1.53-23.23,1.95-48.89,0-71.83Z"/>
  <path class="cls-1" d="M398.79,880.55c-.75-3.93-3.36-8.26-7.56-8.96-1.9-.32-3.92.2-5.73-.72-.7-3.47,1.02-9.29-3.5-9.7-7.16-.66-15.05.03-22.11-.02-23.55-.16-46.83-.86-70.26-.03-1.98.07-3.96-.04-5.93,0l-.05,137.68,44.49.5.45-35.7,46.69-.3c.63-.18.83-.59.87-1.21.09-1.35-1.67-7.93.24-8.52,2.26-.7,7.9.51,10.59,0,.58,0-.86-9.81.77-9.81h9.3c1.27,0,1.74-5.61,1.83-6.95,1.2-18.25-.89-37.86-.08-56.25ZM353.92,933.17c0,.54-1.27,1.81-1.81,1.81h-23.5v-44.93h25.3v43.12Z"/>
  <path class="cls-1" d="M830.81,410.84l160.87.5v-19.88l-164.22-.77v12.39h-71.26c-.14-.38.52-.62.52-.77v-24.01l-25.82-.52v-21.95c0-1.75-8.75-.3-10.01-.31-.77,0-1.66-.48-2.62-.49-3.96-.02-8.37-.34-12.15.54-.23-5.59.37-11.46-1.04-17.04h42.86v-12.39h13.17c.05,0,.77-.72.77-.77v-12.14h12.91v-32.02l22.21.52v-25.05l-93.99-.26v11.36h-15.75c-.49,0-1.73-1.07-2.25.89-.39,1.48,1.56,9.13-.04,10.24l-20.61.3c-1.01,1.68.63,11.62-.08,12.32l-59.91-.52v13.43h-18.33c-1.3,0-.26,3.04-.23,3.85.13,4.73-.14,9.5-.02,14.22h20.14v-10.59c0-.26-.82-1.08-.51-1.8h39.24s0,12.39,0,12.39l-16.99.56c-.35,2.78,1.03,5.61.47,8.73h-11.36v9.04c0,.16.71.73.51,1.29l-13.42-.51v16.78c0,.05.72.77.77.77h17.04c1.55,0,.29-4.12.26-4.91-.08-2.15.04-4.31,0-6.45h13.94v-9.3h30.21c.15,0,.59-.73,1.03-.04.89.97.26,1.35.26,1.85v18.59c0,.05.72.77.77.77h33.31v20.91c0,.05.72.77.77.77h24.53l-.51,22.72-21.18-.52v18.07c3.38-.47,21.26.82,22.75-.23,1.27-.89-.07-10.93.48-13.2h20.4c.16,0,.4-.65.77-.52v28.14c0,.05-.72.77-.77.77h-16.52c-1.15,0-1.03,5.63-.26,6.71l-24.81-.28.25,16.33,42.12-.03v21.69l-42.54-.48c-1.4.4-.77,5.88-.84,7.44-.1,2.2-.11,3.53-.1,5.69,0,.78-1.17,4.9.36,4.9h25.82c.21,0,.62-.92,1.29.28l-.51,18.32-112.58.52c.1-3.01-.11-6.05-.02-9.06.04-1.38,1.39-4.25-.31-4.81l-48.21.44v-34.6h15.75c1.4,0,.24-7.35.23-8.49-.01-3.39.86-6.35.03-9.58h16.27c.79-.95.75-3.43.8-4.88.08-2.2.06-4.55,0-6.76-.02-.86-1.07-3.85.23-3.85h14.98c1.52,0,1.77-11.35.77-12.91l19.08-.55c.04-1.3.48-2.53.56-3.83.44-6.7.76-19.97,0-26.38-.06-.52-.24-1.78-.8-1.78h-38.73c-1.49,0-.29,3.62-.26,4.4.05,1.29.41,9.03-.77,9.03h-84.17c-.17,0-.78-.68-1.29-.52v-12.14c0-.05-.72-.77-.77-.77h-39.51v27.63c0,.64.64,4.08,1.36,4.32,2.47.46,16.72.08,17.78.81,1.49,1.03-.84,12.68,1.77,12.68h15.23v14.72c0,.29.87.79,1.29.77l15.23.52v17.04c.51-.17,1.12.52,1.29.52h15.23v34.08h-49.57v12.14c0,.19-.53.84-.6,1.21l-.67.12-110.27.48c.47-6.42-1.18-12.76,0-19.11h26.08c1.86,0,1.36-8.79,1.31-10.61-.03-1.23-.51-2.32-.56-3.57-.04-1.11,1.44-3.25-.31-3.82l-43.05.17.52-21.43c1.63.04,3.27-.07,4.9,0,9.99.47,24.89,1.68,34.63.54.52-.06,1.78-.24,1.78-.8v-13.94c0-1.28.97-1.99-1.78-2.35-7.22-.94-15.67,1.12-23,.54.4-1.45,1.31-6.61-.33-7.16l-15.54.87c-.41.19-1.16-.49-1.16-.68v-28.66h21.69s.51,13.94.51,13.94h21.69c-.17-.51.52-1.12.52-1.29v-16.01c0-.57-1.26-.74-1.78-.8-4.02-.47-10.76-.12-15.02,0-.88.03-4.37,1.16-4.37-.23v-21.95h24.79v-21.69h33.82c.05,0,.77-.72.77-.77v-20.4l32.02.52v8.52c0,1.15,1.21.26,1.29.26h11.62c-.06,2.48.08,4.99,0,7.48-.02.72-1.16,3.88.26,3.88h17.3c-.76-3.33,1.26-14.86-.23-17.07-1.2-1.78-10.7.85-12.2-.2-.78-.54-.53-4.53-.51-5.74.02-.85,1.01-4.36-.23-4.36h-9.55v-8.78h-17.56v-13.43l38.22.51c.64,1.83-1.14,11.4-.03,12.17.88.62,12.95.13,15.29.2.93.03,5.4,1.3,5.4-.24v-17.04c0-.05-.72-.77-.77-.77h-18.33v-12.91l-58.87-.77v-11.62h-21.18c-.71-2.01,1.38-10.19.03-11.14-1.63-1.15-14.64.5-17.59-.23v-10.59c0-.05-.72-.77-.77-.77h-92.69l-.42,23.62c-.19.41.49,1.17.68,1.17h21.43c.68,9.67-1.66,20.7-.54,30.24.06.52.24,1.78.8,1.78h12.14v12.91h13.94c.19.56-.52,1.13-.52,1.29v10.33c0,.43,1.25.91,1.78.8l41.08-.03v15.23c0,.26.82,1.08.51,1.8l-25.33-.29.03,23.01h-25.05c-.14,0-.65.58-.72.85l.42,23.1c-.06.24-.62.84-.74.84h-71.52c-.47-1.9.86-12.13-.34-12.42l-163.87.8v19.62l161.63.26c-.43,1.4-.62,10.92-.29,11.39.15.22.37.35.62.41l55.18-.45c.72.09-.26.66-.26.78v14.98c0,1,.05,2.96,1.27,3.15l22.49-.31v9.04l-87.79.26.52,11.88h-52.67v-41.83h-27.63c-1.72,0-.24,7.26-.21,8.52.02.96-.39,1.9-.37,2.67.19,10.37.39,20.75.32,31.15h27.37c-.24,3.48-.68,7.5,0,10.84h-70.23v13.43h-28.66c-.43,0-.91,1.25-.8,1.78l.54,19.39h30.73c.05,0,.77-.72.77-.77v-11.88c0-.17-1.03-1.1-.26-1.29l59.31.08c1.76.59.36,3.83.31,5.33-.3,9.71.27,19.49.02,29.2l25.82-.52v11.88c-.56.19-1.13-.52-1.29-.52h-24.53l.52,14.98h-23.24v16.01h-20.91c-.57,0-.74,1.26-.8,1.78-.41,3.51-.25,12.35,0,16.06.04.63.16,2.67.88,2.84l22.38.25c1.66-1.46.51-2.97.49-4.64-.04-4.22.08-8.46.02-12.67h22.46c.05,0,.77-.72.77-.77v-14.72h24.53c.05,0,.77-.72.77-.77v-12.65h24.27v-12.91c.38-.14.62.52.77.52h41.31c.05,0,.77-.72.77-.77v-15.75l42.35-.52v10.07c0,1.16,8.71.85,10.09.8,1.47-.05,2.87-.73,4.37-.54v52.67l20.13-.52c1.01,9.48-1.63,20.45-.54,29.72.06.52.24,1.78.8,1.78h18.85l-.54,34.33c-.02.43.52,1.3.8,1.3h17.82c.48,2.86-.46,5.84-.54,8.5-.11,3.8.02,7.64,0,11.36-.02,4.33-.48,10.44,0,14.51.06.52.24,1.78.8,1.78h14.2l-.52,28.92c4.65-.06,9.37.26,13.94-.52.31,4.35-.25,8.76-.32,13.08-.01.64.38,1.39.36,2.15-.04,1.4-1.29,4.3-.05,5.21l19.12-.3c-.13,2.73-1.32,15.6-.29,17.08.15.22.36.35.62.41,47.81.13,95.66.13,143.51.04,7.99-.01,19.18.96,26.86.05.52-.06,1.78-.24,1.78-.8v-16.27c6.28-.87,12.73.37,19.14-.23.78-.54.57-13.42.51-15.55-.05-1.55-.52-2.85-.54-4.36,3.35.08,6.73-.1,10.09-.03.73.02,3.33.95,3.33-.23v-28.66h15.49v-36.15h17.3c.05,0,.77-.72.77-.77v-34.86h18.33c.05,0,.77-.72.77-.77v-30.73c.72-.3,1.55.52,1.81.52h18.33l-.52-52.67h14.72c1.43,0,.27-8.49.26-9.81h42.35v16.53l42.34-.51c-.14.95-.51,1.82-.54,2.81-.06,1.9-.53,9.1,1.06,9.86l23.75.23v12.14c0,.17.68.78.52,1.29h25.3v14.72c0,.05.72.77.77.77h21.95v17.04h21.95c.29,0,1.81.38,1.81-.77v-19.11c0-2.2-6.78-.78-7.98-.75-4.56.09-9.15-.11-13.71-.02.31-4.4,1.06-9.86.54-14.23-.06-.52-.24-1.78-.8-1.78h-22.46v-14.2c0-.05-.72-.77-.77-.77h-24.53l-.52-11.36h25.82v-34.6l59.39.51c-.1,3.18.11,6.39.02,9.58-.03.88-1.16,4.37.23,4.37h30.73c-.17-.51.52-1.12.52-1.29v-19.11c0-.57-1.26-.74-1.78-.8-6.68-.78-17.69-.11-24.84,0-.7.01-2.81.8-2.81-.23v-12.91l-69.2-.26.52-10.85h26.59c1.3,0,.26-3.04.23-3.85-.25-9.6-.21-19.87,0-29.48.03-1.55,1.63-9.01-.75-9.01h-27.11v41.83s-52.67,0-52.67,0v-11.88l-87.27.52v-9.3l22-.02c.43.12,1.24-.54,1.24-.75v-18.33l54.4.02c1.48-.35.6-9.02.55-10.82-.02-.63.04-.66.56-1.05ZM686.48,322.52c.8-1.74-.05-3.12-.02-4.88.03-1.55,1.49-4.15-.19-5.5-1.43-1.16-2.84.08-4.21.07-1.24,0-2.22-.48-3.13-.49-1.2-.02-5.37,1.1-5.37-1.34v-12.65c1.32.14,2.48.5,3.85.54,3.97.12,7.43-.4,11.33-.08.52.04,1.25-.5,1.59-.46,1.22.13.27,1.22.27,1.29v9.3c0,.05.72.77.77.77h28.66c.74-2.43.36-4.29,0-6.71h7.75v-26.34h23.24v33.57h-16.52v12.91h-48.03ZM381.8,322.52v-11.62c0-.09-1.2-1.29-1.29-1.29h-15.23l-.52-33.57,22.72.52v25.05c0,1.3,6.01.62,7.23.78-.41,1.53-1.29,6.1.33,6.64l26.28.08c.68.14,2.83-.84,2.83-1.3v-9.3c0-.16-.65-.4-.52-.77h17.3c1.15,0,.26,1.21.26,1.29v13.17c-2.96.77-8.8-.93-11.23-.4-.38.08-1.17.25-1.17.66v9.81l-46.99.26ZM363.73,497.06l-55.43.08c-1.41.44-.34,2.03-.31,3.26.09,4.08.01,8.13-.54,12.16h-42.35c-.86,1.89.63,13.34,0,13.95l-23.24.52.46-35.58c-1.42-1.66-15.16,1.02-17.8-.57-.31-.37.3-.65.3-.78v-8l53.36.54c1.76-.41.2-9.84.29-11.64.03-.58.09-1.54.8-1.67l60.7-.13.06,19.05,23.7-.46v9.3ZM618.83,524.43l-.76,28.41c-1.41,2.49-15.73,1.68-16.19.94.21-.87-.6-2.31-.6-2.75v-12.14l-87.79.77v13.94c0,.05-.72.77-.77.77-3.77,0-10.64.6-13.94,0-1.41-.26-1.68-1.61-1.81-2.83-.86-7.94,0-16.87.04-24.79,0-.69-.35-1.2-.55-1.81l122.39-.52ZM512.2,610.67c.4-.12.75-.83.77-1.29-.37-2.92.33-6,.42-8.78.03-1.09-.97-5.47.42-5.88l38.41.46c.2.56-.51,1.13-.51,1.29v8.78c0,1.3,3.04.26,3.85.23,3.18-.08,6.39.12,9.57.02.2-.56-.51-1.13-.51-1.29v-9.04h35.89c.26,0,1.08-.82,1.8-.51.82,2.7-1.52,14.33-.02,15.75,1.41,1.34,15.89-.94,16.55-.26l-.52,54.22h-17.04l-.52,24.27-86.75-.52v-22.98c0-.24-1.14-1.24-1.68-1.14l-16.39.37v-53.7s16.26,0,16.26,0ZM457.7,604.75c-.19-1.61.64-11.64-.76-11.64h-8.52l-.75-19.13c-.62-.95-2.83.1-4.15.07-1.46-.04-2.88-.76-4.39-.57l-1.55-36.66h36.15c-1.95,12.09-1.8,24.57-1.87,36.83-.03,5.14.3,10.41.34,15.56.06,7.32-.45,14.73.5,21.97l-13.95-.51c.62-2.28-.82-3.99-1.05-5.93ZM627.61,708.79v14.98l-140.46-.52v-13.68c0-.05-.72-.77-.77-.77h-15.49c-1.14,0-1.25-3.08-1.29-3.84-1.05-18.05.64-37.12.02-55.31-.04-1.15-.53-2.19-.54-3.33h14.46v25.56c0,1.49,3.62.29,4.4.26,2.32-.08,4.65.05,6.96,0-1.21,4.45-.28,9.16-.05,13.62.06,1.16-1.42,3.2.58,4.22,1.04.53,1.52-.29,1.8-.29h10.07l-.33,16.72.67,1.4,99.85-.82v-16.52c0-.05.72-.77.77-.77h10.84c.05,0,.77-.72.77-.77v-13.94c0-.47.27-2,.77-2.32h10.07c-.42-2.56.42-5.07.54-7.47.22-4.39-.35-9.09-.02-13.44.12-1.58.41-4.32,1.29-5.43h12.39l.26,62.49c-5.93.07-11.63.52-17.56,0ZM675.12,573.49c-1.97.37-5.83-.51-7.49,0-1.46.45-.27,3.19-.23,4.37.08,2.6.16,5.74,0,8.31-.07,1.2-.33,4.7-.62,5.58-.7,2.17-7.79,1.2-9.74.85l-1.06,18.05c-4.4.89-8.93.44-13.4.54-.33-1.87.48-3.64.54-5.4.64-17.93.15-36.37-.56-54.22-.2-4.94.5-9.93-1.01-14.74h35.63s-2.06,36.66-2.06,36.66ZM775.3,487.77v-18.07l61.45-.52v13.43l54.22-.52v9.3l-17.56-.52-.52,36.15-23.24-.51c-.37-3.69.32-7.48.43-11.07.02-.61.05-2.88-.69-2.88h-42.09c1.07-3.92.31-8.06.2-12.05-.03-1,1.05-2.85-.54-3.37l-54.95-.3c-1.13-.8.71-6.79-1-8.55l24.27-.52Z"/>
  <path class="cls-1" d="M144.77,156.75l.26,80.04h16.78l-.44,25.74c1.46.98,2.8.08,4.3.05,4.22-.08,8.56.47,12.67-.49-.09,4.56.12,9.14.02,13.7-.04,1.7-1.23,3.69-.07,5.19,1.1,1.42,2.9.21,4.41.19,4.05-.07,8.11.1,12.15.03.2.56-.51,1.13-.51,1.29v15.49c0,.05.72.77.77.77h20.66c1.15,0,.26,1.21.26,1.29v34.34l-19.49-.42-1.1.75.06,46.8.73,1.42,28.06-.28v-43.89c0-.13-.61-.41-.3-.78.27-.39.63-.45,1.07-.52,2.87-.44,9.64-.09,12.94-.01.98.02,5.91,1.35,5.91-.24v-55.26c0-.11-.77-.58-.52-.77,2.48-.63,19.35.85,19.91.02.95-1.4-.33-11.11-.31-13.73.01-1.19,1.51-8.5-.24-8.5h-16.27v-10.84h35.63v-24.01c0-.57-1.26-.74-1.78-.8-4.21-.49-8.87.48-12.92.56-7.83.16-15.69-.16-23.52-.02-.09-1.32.49-2.54.54-3.85.05-1.3.36-9.06-.8-9.06h-24.01v-10.59c0-.05-.72-.77-.77-.77h-21.43c.5-4.54-.31-9.28,0-13.94h-18.07l.52-19.62,39.24.52v11.62l106.04,1.33c1.7-1.76.37-4,.32-5.95-.12-4.73.13-9.49.02-14.22h27.63c.57,0,.74-1.26.8-1.78.62-5.25-.33-11.03-.29-16.3l32.31.3c1.03-.75.41-15.33.48-17.86,2.5.03,5.01-.03,7.51-.02,10.32.02,21.02-.14,31.51,0,5.8.07,12.24,1.35,18.08.57.68-.09,2.3-.66,2.3-1.32v-17.3h224.12c.52,2.65-.54,5.58-.55,8.01-.01,1.9.6,4.25.6,6.19,0,1.33-1.39,3.76.29,4.31l58.79-.44c.77.19-.26,1.12-.26,1.29v15.49c0,.57,1.26.74,1.78.8,6.12.72,17.36.28,23.8,0,2.25-.1,5.23-.6,7.46-1.05-.12,4.9.17,9.84.03,14.74-.04,1.21-1.11,3.43-.05,4.14,2.41,1.62,27.1-1.4,28.43-.28.2.56-.51,1.13-.51,1.29v18.59l106.9.26v-12.39h39.25c.3.72-.52,1.55-.52,1.81v16.01c0,.13.61.41.3.78-2.95,1.96-16.02-1.03-17.88.22-1.06.71.01,2.93.05,4.14.1,3.35-.12,6.74-.02,10.09h-20.91c-1.4,0-.19,3.9-.21,4.91-.05,2.29-1.11,4.12-.05,6.46h-23.5c-.16,0-.73-.71-1.29-.52v13.43l-38.17.05c-.31,5.2.12,10.49-.03,15.72-.04,1.21-1.5,8.5.24,8.5h35.63c1.15,0,.26,1.21.26,1.29v8.26c0,.21.98.38,0,1.04-.36.58-.59-.26-.77-.26h-15.49c-.28,0-.84.88-.79,1.32l.25,21.43,17.09-.05,1.59.77-.25,55.47c1.85,1.19,3.49.09,5.33.05,3.95-.09,9.72-.41,13.47,0,.71.08,1.4.01,1.72.84l.11,45.1,26.6.02,1.17-.83.51-47.87-1.09-.75-20.01.42v-35.85c.15-1.04,18.72,1.53,20.97-.25,1.83-1.44.14-14.17.21-17.09h16.27c1.73,0,.28-7.24.24-8.5-.12-3.37.45-6.83-.49-10.09l17.49-.07-.45-25.75h17.3l.69-79.17c-1.08-2.38-2.98-.88-4.81-.85-4.22.07-8.46-.1-12.67-.02v-16.01h-61.19c-.28,0-.83.87-.8,1.31.11,1.55.61,9.83-.29,10.09l-97.28-.03v-18.85c0-1.27-6.2-.47-7.52-1.3l-21.92.53v-18.07h-31.76c-.16,0-.73.71-1.29.52v-16.78c0-.57-1.26-.74-1.78-.8-7.26-.85-17.33.06-24.79.05-10.94-.02-21.88-.03-32.81-.02v-18.59c-18.19-.05-36.7.04-55.02.02-43.07-.03-86.45-.12-129.57,0-13.67,1.15-30.09-1.62-43.43-.05-.52.06-1.78.24-1.78.8v17.82h-59.13c-1.64,0-.26,5.33-.24,6.43.09,3.56-.44,7.07-.02,10.61h-33.05v18.07l-29.36.08.44,19.54h-98.64c-.49-.49,1.84-9.64-.24-11.43-.61-.53-.88.07-1.05.07h-59.64c-1.31,5.22.08,10.71-.52,16.01h-16.53Z"/>
  <path class="cls-1" d="M863.54,556.52l-27.3-.59v26.85h-22.98c-.05,0-.77.72-.77.77v17.82l-24.22.05c-.68.47.2,6.91-.02,8.5-.18,1.25-1.04,1.93-1.11,3.07-.12,1.91.87,5.72.87,7.99,0,.43-.19,1.05-.56,1.05h-24.01l.52,20.66-23.46-.46c-.83.32-.76,1.01-.84,1.72-.59,5.37.13,12.44.54,17.84l-22.07-.41c-.41-.19-1.16.49-1.16.68v24.01h-21.17c.17.51-.52,1.12-.52,1.29v56.8c0,.05-.72.77-.77.77h-23.24c-.05,0-.77.72-.77.77v23.5h-25.82v21.69h-174.03v-20.91c0-.05-.72-.77-.77-.77h-25.05v-23.5c0-.05-.72-.77-.77-.77h-23.24l-.85-58.27-21.61-.6v-24.27l-22.72-.52v-18.33c0-.26-.85-.85-1.29-.79l-22.99.53v-20.4c0-.22-.81-.87-1.24-.75l-23.55.49v-19.88c0-.57-1.26-.74-1.78-.8-6.81-.8-15.52.45-22.49.29-.76-.47-.31-.82-.29-1.29.26-5.83,1.5-11.76.29-17.56h-23.24l.53-25.57c.06-.43-.53-1.29-.79-1.29h-26.34c-.57,0-.74,1.26-.8,1.78-.75,6.41.55,13.31.59,19.65.01,2.1-1.54,10.88-.08,11.91l21.16.27-.4,20.54c1.35,2.2,22.49-1.26,24.74.3,1.13.79-.01,3.37-.05,4.66-.06,1.95-.21,14.12.25,14.77l24.04-.03c-.08,3.87.12,7.77.03,11.64-.05,1.86-1.67,6.66.5,7.74l23.75-.27v20.4c0,.25.76.8,1.18.64l22.57-.38c-.02,1.51-.49,2.81-.54,4.36-.07,2.18-.27,15.52.51,16.07l23.28.22-1,56.99,1.25.85,22.46.52c-.3,8.27-.55,16.57-.25,24.78.11.24.94,1.04,1.03,1.04h23.75c1.15,0,.26,1.21.26,1.29v21.43h26.85v20.4l178.39.78c.53-.08,1.04-.31,1.37-.73,1.47-1.86-.24-17.38.47-20.96h26.85l-.52-22.72c3.08.35,24.28,1.18,25.08.03,1.36-1.96-.55-22-.29-25.85h23.5c1.37,0,.18-3.1.21-3.88.52-13.99.3-28.3.03-42.32-.08-4.05.46-8.22-.49-12.15l24.2-.07-.97-20.07,23.75.51v-19.88c0-.16-.71-.73-.52-1.29h24.01c.05,0,.77-.72.77-.77v-18.33c7.21-.4,15.36,1.38,22.49.54.52-.06,1.78-.24,1.78-.8v-17.56c0-.26-.82-1.08-.51-1.8l24.79.51v-21.17h21.43c.22,0,.87-.81.75-1.24l-.57-31.74Z"/>
  <path class="cls-1" d="M644.65,210.46v46.48h25.56c.05,0,.77-.72.77-.77v-43.38c0-.57,1.26-.74,1.78-.8,3.77-.44,9.99-.1,13.99,0,.81.02,3.85,1.07,3.85-.23v-25.82c0-1.74-7.3-.26-8.5-.24-5.14.1-10.18-.9-15.29-.3v24.48c-.43,0-1.08.58-1.26.58h-20.91Z"/>
  <path class="cls-1" d="M444.29,256.93h25.56c.05,0,.77-.72.77-.77v-45.44c0-1.72-6.81-.27-7.98-.24-3.4.1-8.72.38-11.92,0-.52-.06-1.78-.24-1.78-.8v-24.27c0-1.54-4.47-.27-5.4-.24-4.7.15-9.79.11-14.5,0-1.17-.03-2.34-.88-3.09-.05-.63,7.14,0,14.33-.22,21.48-.03.93-1.3,5.4.24,5.4h17.56c.19,0,.79.67,1.29.52.31.68-.52,1.53-.52,1.8v42.6Z"/>
  <rect class="cls-1" x="673.03" y="453.68" width="22.23" height="17.6"/>
  <path class="cls-1" d="M673.83,414.95c-.05,0-.77.72-.77.77v15.75h19.88c.05,0,.77-.72.77-.77v-14.46c0-.17-.68-.78-.52-1.29h-19.37Z"/>
  <rect class="cls-1" x="419.47" y="454.2" width="21.71" height="17.09"/>
  <path class="cls-1" d="M441.71,415.73c0-.05-.72-.77-.77-.77h-19.11c-.05,0-.77.72-.77.77v14.98c0,.17.56,1.24.87,1.31,3.26.78,10.22-.41,13.85-.57,2.64-.12,5.22,1.81,5.94-2.29.57-3.26,0-9.74,0-13.43Z"/>
</svg>