<?xml version="1.0" encoding="UTF-8"?>
<svg id="_图层_1" data-name="图层 1" xmlns="http://www.w3.org/2000/svg" viewBox="0 0 1080 1080">
  <path d="M697.3902587890625,803.12286376953125c-1.2598876953125.031005859375-2.4141845703125.558837890625-3.669677734375.5927734375-1.9290771484375.05206298828125-5.4603271484375-2.08935546875-5.5625,1.24884033203125l.3297119140625,29.83685302734375-32.47216796875-.01617431640625v29.267578125c0,.22540283203125-.82666015625.8868408203125-1.26611328125.766357421875l-25.629150390625-.505126953125.012451171875-28.746337890625-32.1796875-.255126953125v-32.16796875h-62.75390625l-.05810546875,213.87744140625c1.427734375,1.7083740234375,5.637451171875.24627685546875,7.679443359375.198974609375,9.59130859375-.22222900390625,20.0068359375-.3026123046875,29.5782470703125.00347900390625,1.3302001953125.04248046875,6.515869140625,1.5728759765625,7.0582275390625-.30755615234375l-.490966796875-151.54852294921875c4.8271484375-.12152099609375,9.6953125.16302490234375,14.5264892578125.02740478515625,1.4635009765625-.04107666015625,3.0452880859375-1.22186279296875,3.8792724609375.27972412109375l.0203857421875,32.68719482421875,25.3460693359375-.2962646484375v45.3515625h40.869140625c.5775146484375,0,.7554931640625-1.287353515625.81787109375-1.81884765625,1.08935546875-9.27996826171875-.32275390625-22.144287109375-.575927734375-31.645751953125-.1005859375-3.77850341796875.118408203125-7.58587646484375.021728515625-11.359619140625h26.3671875v-33.22265625h17.666015625c.11279296875,0,.597900390625-.7889404296875.7857666015625-.52716064453125-.0042724609375.6160888671875.0367431640625,1.243896484375.029541015625,1.8665771484375-.4432373046875,38.227783203125-.565673828125,76.7728271484375-.5733642578125,114.9180908203125-.001953125,10.16021728515625-1.158203125,24.765380859375-.0037841796875,34.32464599609375.068359375.56585693359375-.0208740234375,1.21392822265625.5194091796875,1.59002685546875,1.56005859375,1.0859375,10.5631103515625-.29058837890625,12.931640625-.31890869140625,6.5789794921875-.0787353515625,13.036376953125.51348876953125,19.5115966796875.570556640625,2.9525146484375.02606201171875,6.7091064453125.2706298828125,9.53955078125.005126953125.6954345703125-.06524658203125,1.4000244140625.00555419921875,1.6864013671875-.7945556640625l.0601806640625-212.996337890625-.420166015625-.63446044921875c-17.7685546875-.0709228515625-35.7769775390625-.6903076171875-53.580810546875-.2518310546875Z"/>
  <path d="M924.697265625,864.31640625c-1.591552734375,0-.21826171875-3.795654296875-.241943359375-4.507568359375-.230224609375-6.97747802734375.236083984375-16.7454833984375-.522216796875-23.204833984375-.062255859375-.53155517578125-.240478515625-1.81884765625-.81787109375-1.81884765625h-29.267578125v-30.849609375h-61.69921875v30.5859375c0,.57745361328125-1.287353515625.75543212890625-1.81884765625.81787109375-4.94775390625.58074951171875-13.2659912109375.1463623046875-18.505615234375-.005126953125-1.2388916015625-.03582763671875-8.679443359375-1.529541015625-8.679443359375.241943359375v28.740234375h-27.158203125c-.055908203125,0-.791015625.73504638671875-.791015625.791015625v152.666015625l42.437255859375.02703857421875c.4384765625.02398681640625,1.332275390625-.53204345703125,1.332275390625-.81805419921875v-62.2265625c0-.15509033203125-1.04931640625-1.07696533203125-.2584228515625-1.32403564453125l89.3812255859375.00390625-.2989501953125,63.84283447265625,44.0694580078125.49755859375-.266357421875-153.459716796875h-26.89453125ZM908.0859375,915.99609375h-89.6484375c-.3048095703125-.7376708984375.52734375-1.58013916015625.52734375-1.845703125v-46.142578125h22.939453125c1.7867431640625,0,.791015625-2.71484375.791015625-2.900390625v-24.521484375h41.1328125v26.630859375c0,.18548583984375.765869140625.88836669921875,1.1885986328125.691650390625l23.072021484375-.4307861328125-.0028076171875,48.5184326171875Z"/>
  <path d="M315.857421875,868.8206787109375c-.0216064453125-11.05694580078125.123046875-22.11663818359375-.0521240234375-33.1708984375l-.420166015625-.63446044921875c-11.1942138671875-.27069091796875-22.6173095703125-.666015625-33.7835693359375.29718017578125v-31.376953125l-142.68017578125-.29498291015625-.15625,213.2681884765625c.2562255859375.89556884765625.96826171875.79425048828125,1.7464599609375.89019775390625,6.6405029296875.818603515625,15.8441162109375-.45513916015625,22.6761474609375-.5780029296875,6.760009765625-.12158203125,13.6824951171875.2374267578125,20.32861328125.02203369140625.313720703125-.691162109375-.528076171875-1.55810546875-.528076171875-1.84259033203125v-61.962890625l93.5601806640625.05926513671875.3070068359375-32.22723388671875h38.232421875c.5775146484375,0,.7554931640625-1.287353515625.81787109375-1.81884765625,1.3984375-11.9134521484375-.044677734375-29.64208984375-.04833984375-42.23626708984375-.0008544921875-2.7861328125.00537109375-5.60400390625,0-8.39373779296875ZM271.07958984375,916.5234375h-88.09130859375v-75.94439697265625h88.09130859375v75.94439697265625Z"/>
  <path d="M511.021728515625,804.9647216796875c-.126708984375-1.03070068359375-.0687255859375-1.7322998046875-1.343017578125-1.821044921875l-42.45458984375-.001708984375.0006103515625,175.07708740234375-83.3184814453125.00360107421875v-174.287109375c0-.05596923828125-.735107421875-.791015625-.791015625-.791015625h-42.71484375c-.055908203125,0-.791015625.73504638671875-.791015625.791015625v179.82421875c0,.4366455078125,1.2784423828125.93267822265625,1.81884765625.81787109375l37.734619140625-.55694580078125c-.200927734375,8.1630859375.252197265625,16.38037109375.01904296875,24.54595947265625-.0517578125,1.8160400390625-1.656494140625,7.951171875.315673828125,8.60577392578125l90.89306640625-.19000244140625v-32.958984375l40.07958984375.52972412109375c.055908203125-28.38995361328125-.0684814453125-56.7965087890625-.026611328125-85.19354248046875.0361328125-24.50433349609375-.3214111328125-49.230224609375,0-73.828125.086669921875-6.62969970703125,1.396484375-13.90484619140625.578125-20.5667724609375Z"/>
  <path d="M713.49609375,299.794921875c0,.22540283203125.82666015625.8868408203125,1.26611328125.766357421875l26.4287109375-.48443603515625.779052734375-63.30224609375,19.514404296875-.52459716796875v-12.392578125c0-2.03326416015625,9.747314453125.76812744140625,10.020263671875-2.1087646484375.93505859375-25.89642333984375.013427734375-51.5963134765625-.02490234375-77.541015625-.002197265625-1.40447998046875,1.1839599609375-3.72406005859375-.5107421875-4.775634765625-.690673828125-.42852783203125-1.12841796875.3140869140625-1.310791015625.3140869140625h-15.556640625l.52734375-20.0390625h-45.87890625v9.4921875c-6.4908447265625-.6873779296875-13.242431640625-.776611328125-19.80712890625-.54345703125-.80908203125.02874755859375-4.45068359375.00933837890625-4.45068359375.80712890625v21.09375c0,.57745361328125,1.2874755859375.7554931640625,1.81884765625.81787109375,6.9423828125.8148193359375,19.08349609375.2479248046875,26.416259765625-.00457763671875,1.3409423828125-.04620361328125,2.577880859375-.64654541015625,3.93017578125-.5469970703125-.9033203125,4.21197509765625-.1434326171875,7.9268798828125.0009765625,12.125732421875l-59.588134765625.26422119140625v19.248046875h26.630859375c.265625,0,1.108154296875-.83221435546875,1.845703125-.52734375v16.34765625h-53.7890625l-.312744140625,25.32879638671875c2.3280029296875,1.86700439453125,4.562744140625.52294921875,6.883056640625.48858642578125,6.24267578125-.09246826171875,12.5052490234375.1148681640625,18.7421875.0224609375v16.34765625l27.9462890625-1.0523681640625-.294189453125,43.27337646484375,29.2984619140625-.03076171875c.312255859375.73675537109375-.5247802734375,1.5748291015625-.5247802734375,1.84295654296875v15.29296875Z"/>
  <path d="M338.847900390625,412.3521728515625c1.7005615234375.1881103515625,2.35302734375,2.011962890625,2.8753662109375-.2286376953125l.5201416015625-20.83721923828125,60.262939453125-.08203125,1.226806640625-1.21014404296875-.315185546875-12.416015625h16.083984375c.055908203125,0,.791015625-.735107421875.791015625-.791015625v-11.337890625h15.556640625c.055908203125,0,.791015625-.735107421875.791015625-.791015625v-25.048828125h28.212890625c.055908203125,0,.791015625-.735107421875.791015625-.791015625v-21.62109375l-112.017822265625-.29559326171875c-.9332275390625.16278076171875-.2099609375,8.97894287109375-.2841796875,10.33709716796875-.084228515625,1.5430908203125-.2891845703125,6.04248046875-1.867919921875,6.04248046875h-11.337890625v29.53125h-12.919921875c-.055908203125,0-.791015625.73504638671875-.791015625.791015625v16.875c0,.67181396484375-.3291015625,1.52081298828125.0045166015625,2.3714599609375-.4713134765625.5531005859375-12.3446044921875-.28216552734375-14.5333251953125-.0252685546875-.531494140625.0623779296875-1.81884765625.24041748046875-1.81884765625.81787109375v22.67578125c0,.36773681640625-.72216796875,1.5601806640625-.621337890625,2.27508544921875-6.4820556640625.250244140625-13.12939453125.84228515625-19.703125.64923095703125-1.2685546875-.0372314453125-3.4951171875-1.1319580078125-4.225830078125-.051025390625l-.7637939453125,48.01776123046875,26.6846923828125-.02703857421875c.439453125.1204833984375,1.26611328125-.54095458984375,1.26611328125-.766357421875v-44.033203125c8.276611328125.7454833984375,17.999755859375-.9302978515625,26.133056640625-.0306396484375ZM371.25,338.02734375h8.173828125c.055908203125,0,.791015625.73504638671875.791015625.791015625v16.34765625c0,.055908203125.735107421875.791015625.791015625.791015625h13.7109375c.055908203125,0,.791015625-.735107421875.791015625-.791015625v-20.302734375h23.73046875v22.939453125c0,.2969970703125-.8865966796875.8089599609375-1.318603515625.79071044921875l-14.501708984375.52764892578125v10.283203125c0,.38238525390625-.9013671875,3.427734375-1.318359375,3.427734375h-30.5859375c-1.4044189453125-2.32257080078125-.2840576171875-5.34722900390625-.240966796875-7.62506103515625.1708984375-9.05096435546875-.173828125-18.13323974609375-.022705078125-27.17962646484375Z"/>
  <path d="M359.384765625,249.29327392578125l-18.193359375.14031982421875v16.34765625h-15.556640625c-.17431640625,0-.800537109375.69854736328125-1.318359375.52734375v49.306640625c0,.57745361328125,1.2874755859375.7554931640625,1.81884765625.81787109375,6.506591796875.763671875,13.73486328125-1.15850830078125,20.32958984375-.55419921875v-34.013671875c0-.05596923828125.735107421875-.791015625.791015625-.791015625h12.12890625c.479736328125,0,1.090576171875.79693603515625,1.632080078125-.76953125l-.2890625-28.02294921875c-.1204833984375-.439453125.541015625-1.26611328125.766357421875-1.26611328125h19.248046875l.22314453125-28.49273681640625,26.67138671875-.77484130859375v-27.158203125l29.03515625-.2210693359375c1.1302490234375-5.7496337890625-.693359375-11.8140869140625.49609375-17.7086181640625h-30.05859375l-.52734375,16.875h-26.3671875l-1.0596923828125,27.42169189453125c-5.9923095703125-1.2869873046875-12.5738525390625-.08428955078125-18.6910400390625-.50115966796875-1.29052734375.70037841796875-.288330078125,1.10833740234375-.288330078125,1.2923583984375v26.89453125l-.791015625.65069580078125Z"/>
  <path d="M281.6015625,255.234375v25.3125c-1.530029296875-.151611328125-2.95703125.4532470703125-4.461669921875.54876708984375-1.6453857421875.10443115234375-11.885986328125-.6002197265625-11.885986328125.76959228515625v33.75c0,.186767578125.766357421875.88818359375,1.189697265625.68988037109375l17.794677734375-.42620849609375v-32.431640625c0-.05596923828125.735107421875-.791015625.791015625-.791015625h13.974609375c-.287841796875-.67303466796875.52734375-1.5621337890625.52734375-1.845703125v-23.994140625h11.865234375c4.162353515625,0,2.22216796875-4.09161376953125,2.33740234375-7.1383056640625.060791015625-1.6051025390625.485595703125-3.11175537109375.606201171875-4.7169189453125.0888671875-1.1827392578125-.706298828125-3.3125-.04833984375-3.70721435546875,2.385986328125.0711669921875,4.730224609375.3289794921875,7.1461181640625.29254150390625,1.12255859375-.01690673828125,2.0863037109375-.493896484375,3.14111328125-.55413818359375.6702880859375-.038330078125,3.4288330078125,1.14288330078125,3.4288330078125-.25994873046875v-16.875c0-1.32952880859375-3.1015625-.2606201171875-3.93359375-.238525390625-3.77880859375.10040283203125-7.5875244140625-.123779296875-11.362060546875-.02789306640625-.172607421875,5.068115234375.4976806640625,10.24505615234375-.597900390625,15.222412109375-3.3267822265625.74566650390625-6.795166015625.71917724609375-10.2041015625.597412109375-1.1939697265625-.04266357421875-3.42578125-1.2255859375-4.257080078125-.02655029296875-.83203125,1.199951171875.015625,12.77325439453125-.232421875,15.32037353515625l-15.819091796875.52972412109375Z"/>
  <path d="M937.880859375,362.28515625c-.173095703125,0-1.12255859375,1.05023193359375-1.321044921875.26177978515625l.292236328125-45.6085205078125c-.530517578125-.8614501953125-1.18896484375-.9654541015625-2.110595703125-1.084716796875-4.84619140625-.6273193359375-13.8359375-.16802978515625-19.03076171875.00341796875-2.248291015625.07421875-4.677978515625.99517822265625-7.10009765625.5517578125l-.0018310546875-34.27545166015625c-.847900390625-.40960693359375-1.9908447265625.5228271484375-2.3685302734375.5228271484375h-27.685546875v-27.94921875h-29.53125v-25.576171875c0-.05596923828125-.735107421875-.791015625-.791015625-.791015625h-23.466796875v-106.259765625c0-.2254638671875-.82666015625-.88690185546875-1.26611328125-.766357421875l-17.71826171875.502685546875v-21.09375l-19.51171875-.52734375v-21.09375h-22.1484375v-20.0390625l-79.1015625.791015625v18.720703125h-28.740234375c-1.1954345703125,0-.844482421875,8.39617919921875-.815185546875,9.77679443359375.053955078125,2.5526123046875.664306640625,5.859375.6024169921875,8.4168701171875-.0235595703125.97454833984375-.2471923828125,1.94976806640625-.6531982421875,2.82647705078125l-25.459716796875.13104248046875c-.2352294921875.0526123046875-.83251953125.63385009765625-.83251953125.73358154296875v19.775390625l-18.45703125.52734375v-10.810546875h-124.453125v11.337890625h-53.26171875v-10.283203125c0-.1458740234375-.541015625-1.23077392578125-.889404296875-1.3369140625l-19.1719970703125.310546875c-1.1181640625-.7506103515625,1.785400390625-11.90606689453125-1.4088134765625-12.85321044921875l-17.55322265625.43231201171875v-12.392578125c0-2.17742919921875-4.937744140625-.7940673828125-6.0426025390625-.7691650390625-1.52685546875.034423828125-7.9776611328125.2353515625-8.7469482421875-.26251220703125-.890380859375-.57623291015625.63818359375-5.248291015625-.80859375-6.64666748046875l-44.174072265625-.00634765625c-1.04541015625.2093505859375-.242919921875,4.02093505859375-.3134765625,5.065185546875-.295654296875,4.372802734375-1.350341796875,9.12261962890625-.031494140625,13.4300537109375h-19.248046875c-.055908203125,0-.791015625.73504638671875-.791015625.791015625v89.912109375h-22.412109375c-.055908203125,0-.791015625.73504638671875-.791015625.791015625v17.666015625c-3.2652587890625.478271484375-6.6239013671875-.4892578125-9.73095703125-.552734375-2.799072265625-.0572509765625-5.3193359375.357666015625-7.93408203125.44873046875-.6639404296875.02313232421875-4.4833984375-1.156005859375-4.4833984375.36767578125v22.412109375h-23.73046875v25.83984375h-22.412109375c-.577392578125,0-.75537109375,1.287353515625-.81787109375,1.81884765625-.615966796875,5.24798583984375.2982177734375,11.95147705078125.048583984375,17.450927734375-.117919921875,2.598388671875-.96630859375,5.3592529296875-.577392578125,8.125732421875l-22.322998046875.14825439453125-1.272216796875,1.30670166015625.419921875,52.62493896484375c.0322265625.4144287109375.1322021484375.835205078125.4921875,1.08721923828125,1.1063232421875.77459716796875,8.048583984375-.992431640625,10.0556640625-.2943115234375l.002197265625,39.0234375c-4.182861328125-.3924560546875-8.296630859375.28118896484375-12.40380859375.57391357421875-.693603515625.0494384765625-2.891845703125-.901123046875-2.891845703125.21441650390625v22.1484375c0,.055908203125-.735107421875.791015625-.791015625.791015625h-18.984375l-.4937744140625,27.45538330078125c-.666748046875.9571533203125-10.6429443359375.4049072265625-12.7117919921875.472412109375-1.25830078125.04107666015625-2.41845703125.52923583984375-3.6715087890625.59765625-.923583984375.0504150390625-3.9530029296875-1.0103759765625-3.9530029296875.21478271484375v28.740234375l-18.399658203125.5771484375c-.0045166015625,5.68841552734375-.1868896484375,11.41558837890625-.0791015625,17.110595703125.046142578125,2.4410400390625,1.66650390625,9.76177978515625-.2247314453125,11.38958740234375-.623291015625.53643798828125-.8985595703125-.07342529296875-1.0718994140625-.07342529296875h-16.083984375v49.04296875h13.18359375c.42138671875,2.2071533203125-.687744140625,8.42315673828125.2579345703125,10.0252685546875.8055419921875,1.36480712890625,7.4122314453125,1.4276123046875,9.2374267578125,1.57354736328125-.099365234375,3.4232177734375.1162109375,6.8800048828125.0185546875,10.30767822265625-.36572265625,12.85809326171875-1.6378173828125,28.40283203125-.5693359375,41.13128662109375.060791015625.72259521484375.517822265625,3.93487548828125,1.338623046875,3.93487548828125h10.810546875v21.62109375c4.965576171875,1.23492431640625,10.2486572265625.0830078125,15.29296875.52734375v15.029296875c0,.055908203125.735107421875.791015625.791015625.791015625h15.029296875c.1038818359375,3.5968017578125-.1319580078125,7.23101806640625-.0224609375,10.83197021484375.034912109375,1.14752197265625.5181884765625,2.13946533203125.5731201171875,3.16693115234375.0711669921875,1.33111572265625-1.3184814453125,3.35552978515625.3197021484375,3.8531494140625.2001953125.060791015625,3.9302978515625.60498046875,4.139404296875.60498046875h12.919921875v42.978515625c0,.055908203125.735107421875.791015625.791015625.791015625h19.775390625c.255859375,3.182373046875-.57080078125,6.7762451171875-.576171875,9.755859375-.002685546875,1.4920654296875.5594482421875,2.78228759765625.59765625,4.19683837890625.0452880859375,1.66986083984375-.474609375,8.35955810546875.5,9.02838134765625.376953125.31695556640625.66455078125-.3052978515625.796875-.3052978515625h26.103515625v21.357421875h123.92578125v-20.302734375l30.5859375-.791015625v-17.666015625h27.685546875c.055908203125,0,.791015625-.735107421875.791015625-.791015625v-16.083984375h34.013671875c.055908203125,0,.791015625-.735107421875.791015625-.791015625v-17.40234375c0-.16058349609375-.6676025390625-.40484619140625-.52734375-.791015625h40.078125v-11.337890625l62.7532958984375-1.3203125c-.0306396484375,3.07684326171875.0341796875,6.16961669921875.026123046875,9.253173828125-.0035400390625,1.340576171875-1.1080322265625,2.5975341796875.2664794921875,3.3721923828125l27.6572265625-.4945068359375v17.666015625c0,.30078125-.385986328125,1.845703125.791015625,1.845703125h28.740234375c.248779296875.9666748046875-1.009033203125.18841552734375-1.0609130859375.79095458984375-.0499267578125.51788330078125,1.0609130859375.1854248046875,1.0609130859375.26373291015625v27.685546875c0,.0926513671875.6046142578125.69061279296875.830322265625.7374267578125l29.755615234375.0535888671875v26.103515625c0,.055908203125.735107421875.791015625.791015625.791015625h29.53125c.2861328125,0,.8421630859375-.89398193359375.81787109375-1.3323974609375l-.6318359375-28.12579345703125c-6.2001953125.01220703125-12.458984375-.26409912109375-18.664794921875-.0948486328125-1.33056640625.03631591796875-9.734130859375,1.55780029296875-9.734130859375-.24188232421875v-28.4765625c0-.57745361328125-1.287353515625-.7554931640625-1.81884765625-.81787109375-8.469970703125-.99420166015625-18.3428955078125.950439453125-26.9222412109375.5550537109375l-1.0872802734375-.49468994140625c-.927978515625-9.470458984375.6435546875-19.00830078125.2978515625-28.51202392578125l27.71484375.47393798828125c.4423828125.091552734375,1.288330078125-.45794677734375,1.288330078125-.73565673828125v-24.521484375l32.1927490234375-.24456787109375.4998779296875-29.8167724609375,31.643310546875-.52459716796875v-32.16796875h26.103515625c.055908203125,0,.791015625-.735107421875.791015625-.791015625v-49.306640625l14.238037109375.0015869140625.000244140625-92.8140869140625h-26.89453125v90.17578125c-.517578125-.1712646484375-1.14404296875.52734375-1.318359375.52734375h-15.556640625v49.306640625c0,.055908203125-.735107421875.791015625-.791015625.791015625h-30.322265625v29.53125l-32.48388671875.024658203125c-.439453125-.12054443359375-1.26611328125.5408935546875-1.26611328125.766357421875v24.78515625c0,.17315673828125,1.05029296875,1.12255859375.2618408203125,1.32098388671875l-150.2821044921875-.54229736328125c-2.71484375.51593017578125-.841796875,7.01690673828125-.7783203125,9.21905517578125.041015625,1.41888427734375.218505859375,9.947998046875-.3372802734375,10.3607177734375l-40.8172607421875.73529052734375v17.40234375c0,.13238525390625.622314453125.419921875.305419921875.796875l-1.091552734375.5277099609375-32.672119140625.02471923828125c-1.46337890625.76202392578125-.2099609375,1.74420166015625-.289306640625,2.86956787109375-.3385009765625,4.798583984375-.8466796875,9.63031005859375-.527099609375,14.5045166015625l-27.6923828125.51739501953125c-1.185302734375,1.52716064453125-.115234375,3.08642578125-.219482421875,4.486083984375-.352783203125,4.73199462890625-1.330810546875,9.84149169921875-.0400390625,14.50555419921875h-30.849609375c-.055908203125,0-.791015625.73504638671875-.791015625.791015625v19.775390625h-119.1796875v-21.884765625c0-.57745361328125-1.287353515625-.7554931640625-1.81884765625-.81787109375-4.654541015625-.54632568359375-9.795166015625.5596923828125-14.26513671875.6031494140625-3.60205078125.0350341796875-7.4580078125-1.34710693359375-11.33544921875-.0482177734375l-.52978515625-48.516357421875h45.87890625v12.392578125l104.4140625.52734375v-13.447265625l30.5859375-.263671875v-20.56640625c0-.57745361328125-1.287353515625-.7554931640625-1.81884765625-.81787109375-2.3779296875-.27911376953125-16.026123046875.5897216796875-16.631103515625.0191650390625.103515625-1.18585205078125-.493408203125-6.8477783203125.783935546875-6.8477783203125h17.138671875c.613525390625,1.47906494140625-1.2723388671875,6.4508056640625.304443359375,6.8013916015625l22.371337890625-.4732666015625v7.646484375c0,.055908203125.735107421875.791015625.791015625.791015625h18.193359375v-11.865234375c0-3.0850830078125-2.29296875-1.33526611328125-4.4613037109375-1.29345703125-4.3089599609375.0831298828125-8.6400146484375-.11431884765625-12.9437255859375-.022216796875.090087890625-3.072265625-.104248046875-6.17572021484375-.0224609375-9.252685546875.022216796875-.83221435546875,1.091064453125-3.93359375-.238525390625-3.93359375h-23.466796875v-17.138671875h-61.171875v11.337890625h-12.65625c.314208984375-.70977783203125.730224609375-2.63671875-.263671875-2.63671875h-13.974609375c-.3048095703125.7376708984375.52734375,1.580078125.52734375,1.845703125v12.919921875h25.83984375v24.521484375c0,.17584228515625,1.04931640625,1.1163330078125.26220703125,1.320556640625l-71.983642578125.00054931640625c-.237548828125-2.0228271484375.8475341796875-8.1251220703125-1.402587890625-8.88092041015625l-29.7095947265625.44305419921875.0015869140625-5.80316162109375h-14.501953125c-.055908203125,0-.791015625-.735107421875-.791015625-.791015625v-10.01953125c0-.05596923828125-.735107421875-.791015625-.791015625-.791015625h-15.8203125c-.055908203125,0-.791015625-.735107421875-.791015625-.791015625v-17.40234375c-.5814208984375-1.26007080078125-5.041748046875-.6717529296875-5.304931640625-1.6429443359375l-.4207763671875-33.34765625c1.6165771484375-1.52410888671875,5.5732421875.83441162109375,6.5494384765625-.57550048828125.91162109375-1.37762451171875-.6634521484375-7.41241455078125.49462890625-7.41241455078125h8.701171875c1.203125-3.61370849609375-.562255859375-7.3118896484375-.002685546875-11.07696533203125l19.6719970703125-.6307373046875c2.8055419921875-.82708740234375.8873291015625-8.53973388671875.9007568359375-10.96673583984375,4.2412109375.55706787109375,8.710693359375-1.68194580078125,13.1826171875-1.0533447265625-.353271484375-4.27117919921875,1.75927734375-27.480224609375.294677734375-29.56524658203125-.85791015625-1.2213134765625-3.8994140625.0089111328125-5.28515625.05303955078125-4.126708984375.13134765625-8.29150390625-.1412353515625-12.41455078125-.021728515625v16.875c-1.1416015625.70166015625-8.5821533203125.61126708984375-8.9888916015625.27880859375-1.9425048828125-1.5877685546875,1.677978515625-7.1058349609375-2.389404296875-7.60650634765625-2.9925537109375-.3682861328125-28.583984375-.7034912109375-29.7904052734375.1722412109375-.7655029296875.5557861328125-.77001953125,3.9107666015625-.4908447265625,5.0433349609375-1.2369384765625.23565673828125-8.150146484375-.30682373046875-8.4405517578125-.0006103515625-.181640625.19146728515625.510498046875,4.02197265625-1.4027099609375,4.66253662109375l-35.158203125-.0001220703125c-2.138427734375-.71575927734375-.9041748046875-5.783447265625-2.282958984375-6.818359375-1.0169677734375-.76324462890625-5.4779052734375.55023193359375-7.0352783203125.05255126953125l.550048828125-27.404541015625c4.603515625-.630859375,9.31201171875-.70880126953125,13.976318359375-.57122802734375.8985595703125.0264892578125,4.460693359375,1.1890869140625,4.460693359375-.23974609375v-28.212890625l19.276123046875-.1290283203125c.459716796875-.095458984375,1.290283203125-2.44024658203125,1.290283203125-2.7713623046875v-26.630859375h19.775390625c1.173828125,0,.263671875-1.2327880859375.263671875-1.318359375v-26.630859375h18.45703125v-20.830078125c0-.4285888671875,1.291748046875-.96307373046875,1.83984375-.84033203125,1.84765625.0406494140625,10.1064453125.967041015625,11.321044921875.3291015625,1.7791748046875-.93438720703125.3992919921875-6.6668701171875.52587890625-9.00531005859375.072265625-1.3355712890625.261962890625-2.595458984375.607421875-3.87298583984375,2.636962890625.26361083984375,5.0738525390625-.4095458984375,7.5830078125-.62548828125,2.9619140625-.25494384765625,4.489990234375,1.80133056640625,4.489990234375-2.8599853515625v-42.451171875h-17.40234375v-37.44140625h24.2578125v-27.421875h22.939453125c.055908203125,0,.791015625-.735107421875.791015625-.791015625v-25.576171875c6.341552734375-.3895263671875,14.17041015625.749755859375,20.32958984375.02685546875.531494140625-.0623779296875,1.81884765625-.24041748046875,1.81884765625-.81787109375v-19.248046875h25.048828125c.055908203125,0,.791015625-.735107421875.791015625-.791015625v-15.029296875h24.2578125v-10.810546875c0-.16131591796875-.723876953125-.75048828125-.52734375-1.318359375h27.685546875c.055908203125,0,.791015625-.735107421875.791015625-.791015625v-15.556640625h36.38671875v-9.755859375c0-1.16668701171875-.102783203125-2.91522216796875,1.3134765625-2.91796875l28.93017578125.492431640625c2.022216796875-.670166015625-.139892578125-5.16058349609375.34228515625-6.802978515625h49.833984375c.426025390625,0,.647216796875-.85955810546875.727294921875-1.280517578125.484130859375-2.54339599609375-1.233642578125-7.8392333984375-.463623046875-10.848388671875h118.916015625c.161376953125,0,.75048828125-.72393798828125,1.318359375-.52734375v9.4921875l-18.849365234375-.42620849609375c-.42333984375-.1983642578125-1.189697265625.5030517578125-1.189697265625.68988037109375v21.357421875h-23.73046875l.005126953125,29.52734375,25.834716796875-.787109375v-21.884765625l19.376708984375.42620849609375c.42333984375.19830322265625,1.189697265625-.50311279296875,1.189697265625-.68988037109375v-24.521484375h20.302734375c.08984375,0,.62548828125-.53460693359375.6629638671875-.76800537109375l.1324462890625-21.91033935546875,24.5693359375.5052490234375c.439453125.1204833984375,1.26611328125-.54095458984375,1.26611328125-.766357421875v-20.302734375l30.05859375-.791015625v-19.775390625h73.828125v19.248046875c0,.055908203125.735107421875.791015625.791015625.791015625h20.302734375v20.830078125c0,.186767578125.766357421875.88818359375,1.189697265625.68988037109375,4.06103515625-.09796142578125,12.234619140625-1.2979736328125,15.8707275390625-.4539794921875.5863037109375.1361083984375.4908447265625.88134765625.6165771484375,1.34332275390625l-.274658203125,98.3524169921875h-10.810546875c-.055908203125,0-.791015625.73504638671875-.791015625.791015625v12.919921875h-16.611328125c-.055908203125,0-.791015625.73504638671875-.791015625.791015625v61.435546875h-25.048828125c-.055908203125,0-.791015625.73504638671875-.791015625.791015625v37.96875c0,.1204833984375,1.000732421875.70318603515625.26171875.7935791015625l-26.410888671875-.033447265625-.2430419921875,26.64508056640625.8936767578125,1.2586669921875,43.65087890625.01507568359375.830810546875-1.2596435546875.0814208984375-18.40631103515625c.0604248046875-.26678466796875.58740234375-.83917236328125.7108154296875-.83917236328125h26.103515625v-18.720703125c0-.0855712890625-.91015625-1.318359375.263671875-1.318359375h18.984375c.085693359375,0,1.318359375.91015625,1.318359375-.263671875v-54.580078125c5.8956298828125,1.51580810546875,11.95263671875-.4239501953125,17.9296875,0v11.337890625c0,1.173828125,1.23291015625.263671875,1.318359375.263671875h19.775390625l-.52734375,29.53125h30.05859375l.0035400390625,32.169677734375c.5330810546875.20245361328125,1.1038818359375-.529052734375,1.3148193359375-.529052734375h27.158203125v39.0234375h26.103515625c.173095703125,0,1.12255859375-1.05023193359375,1.321044921875-.26177978515625l-.002685546875,161.10162353515625h26.630859375l.791015625-181.93359375h-25.576171875ZM364.39453125,613.828125h18.45703125v7.91015625c-3.23193359375-1.6905517578125-16.361083984375.88385009765625-17.962890625-.22998046875-1.07470703125-.747314453125-.22998046875-6.1473388671875-.494140625-7.68017578125ZM343.3045654296875,605.91778564453125c.6907958984375-.3131103515625,1.5555419921875.52752685546875,1.8419189453125.52752685546875h18.720703125c.4886474609375,2.398193359375-1.0579833984375,4.72235107421875,0,6.85546875h-21.09375c.04736328125-2.4827880859375-.29345703125-4.9984130859375.5311279296875-7.38299560546875ZM161.370361328125,563.200439453125l.524169921875,8.440185546875h8.96484375c-.716552734375,2.33319091796875-.779296875,4.5242919921875,0,6.85546875h8.96484375l.231689453125,16.886474609375c.5191650390625.7313232421875,7.2996826171875,1.02960205078125,8.73583984375,1.04058837890625l.524658203125,20.56903076171875h10.283203125c.142578125,0,1.812744140625.62506103515625,1.876708984375.85589599609375l.496337890625,18.65582275390625h-17.138671875c-.19873046875,0-1.845703125-1.19842529296875-1.845703125-1.318359375v-12.919921875l-13.7127685546875-.5245361328125-.5257568359375-21.35992431640625c.018310546875-.4320068359375-.49365234375-1.31866455078125-.790771484375-1.31866455078125h-12.919921875l-1.056884765625-36.38836669921875,7.38818359375.52630615234375ZM228.866943359375,336.977783203125c-.87158203125,5.44024658203125-.6280517578125,11.55670166015625-.5531005859375,17.16534423828125.0189208984375,1.41094970703125,1.1568603515625,2.5631103515625-.761962890625,2.8682861328125-2.0145263671875.3203125-4.1036376953125-.22662353515625-6.068603515625-.52984619140625-.201416015625-.541748046875.5284423828125-1.1185302734375.5284423828125-1.3155517578125v-18.193359375l6.855224609375.005126953125ZM407.63671875,141.328125l-37.444091796875-.00274658203125.530029296875,15.29571533203125h-31.11328125v-54.31640625h30.05859375v13.974609375c0,.08984375.531982421875.6243896484375.7691650390625.6593017578125l19.2698974609375.1317138671875v11.07421875c2.878173828125-.24298095703125,5.8671875.55242919921875,8.69921875.57257080078125,1.2296142578125.00872802734375,2.4327392578125-.58880615234375,3.69384765625-.62127685546875,1.878173828125-.04827880859375,3.5244140625.8541259765625,5.53662109375.0487060546875v13.18359375Z"/>
  <path d="M498.603515625,605.91796875c.055908203125,0,.791015625-.735107421875.791015625-.791015625v-11.07421875c0-.05596923828125-.735107421875-.791015625-.791015625-.791015625h-25.3125c-1.428955078125,0-.2896728515625-3.13507080078125-.308349609375-3.89788818359375-.01953125-.79180908203125-.494384765625-1.64447021484375-.50927734375-2.670166015625-.010009765625-.6834716796875,1.27294921875-3.97882080078125-.237060546875-3.97882080078125h-37.44140625c-.09912109375,0-.682373046875-.59832763671875-.7337646484375-.8323974609375-.1888427734375-.8609619140625,1.5672607421875-8.74859619140625-.4080810546875-9.20843505859375-4.23974609375-.05389404296875-28.8895263671875,1.64678955078125-30.7958984375.3184814453125-.8157958984375-.56842041015625-.55712890625-9.42462158203125-.519775390625-11.130859375.021728515625-1.00103759765625,1.0308837890625-3.0517578125-.23779296875-3.40460205078125h-36.123046875l.530029296875,7.385498046875-24.002685546875-.5469970703125c-.4423828125-.06024169921875-1.3125.54534912109375-1.3125.8079833984375v16.34765625c0,.6689453125,1.6502685546875,1.250732421875,2.346923828125,1.34454345703125,3.4091796875.459228515625,20.23291015625-1.02423095703125,21.3828125-.28948974609375.46142578125.2947998046875.59423828125,1.28509521484375,1.0560302734375,1.5810546875,1.18115234375.757080078125,19.1734619140625.14117431640625,22.4332275390625.24249267578125,13.859375.430908203125,27.855712890625,1.14825439453125,41.6678466796875,1.62957763671875,1.0391845703125.0362548828125,1.8836669921875-.4365234375,2.8709716796875-.5531005859375v7.646484375l38.49609375,1.318359375v10.546875h27.158203125Z"/>
  <path d="M366.2481689453125,551.59271240234375l116.2713623046875.27252197265625v-10.546875l-78.750732421875-.2420654296875c-1.9664306640625-1.5479736328125.218505859375-8.9837646484375-1.710205078125-9.45257568359375l-60.8671875,1.25714111328125v20.0390625c0,.055908203125.735107421875.791015625.791015625.791015625h23.994140625c.1343994140625,0-.320068359375-2.066162109375.2716064453125-2.11822509765625Z"/>
  <path d="M329.326171875,585.3515625c.055908203125,0,.791015625-.735107421875.791015625-.791015625v-13.7109375c0-.4375-1.2850341796875-.92889404296875-1.82275390625-.826416015625l-15.068603515625.2562255859375c-1.009521484375.697998046875-.4066162109375,12.792236328125-.510986328125,15.0721435546875h16.611328125Z"/>
  <path d="M329.58984375,553.7109375v-14.765625h-17.138671875c-1.173828125,0-.263671875,1.2327880859375-.263671875,1.318359375v13.447265625c5.833984375.867431640625,11.51806640625-.30975341796875,17.40234375,0Z"/>
  <path d="M282.919921875,585.87890625h15.8203125c.055908203125,0,.791015625-.735107421875.791015625-.791015625v-13.18359375c0-.05596923828125-.735107421875-.791015625-.791015625-.791015625h-15.8203125c-.173828125.26776123046875-.791015625.64678955078125-.791015625.791015625v13.18359375c0,.055908203125.735107421875.791015625.791015625.791015625Z"/>
  <path d="M300.849609375,616.46484375c.055908203125,0,.791015625-.735107421875.791015625-.791015625v-13.447265625l-17.41845703125-.30419921875c-1.34912109375.989013671875-.113525390625,12.21649169921875.01611328125,14.54248046875h16.611328125Z"/>
  <path d="M282.12890625,553.974609375c0,1.21142578125,2.58740234375.25604248046875,3.4046630859375.2376708984375,3.6353759765625-.0816650390625,8.2081298828125.45697021484375,11.6514892578125.0528564453125.531494140625-.0623779296875,1.81884765625-.24041748046875,1.81884765625-.81787109375v-12.65625c0-.05596923828125-.735107421875-.791015625-.791015625-.791015625h-16.611328125c-.3048095703125.7376708984375.52734375,1.580078125.52734375,1.845703125v12.12890625Z"/>
</svg>